<svg width="322" height="225" viewBox="0 0 322 225" fill="none" xmlns="http://www.w3.org/2000/svg">
<g filter="url(#filter0_d_1_64)">
<rect width="320" height="170" transform="translate(0 53)" fill="white"/>
<rect width="324.341" height="60" transform="matrix(0.986616 -0.16306 0 1 0 52.8871)" fill="white"/>
<path d="M31.404 98V85.4H39.135V87.38H33.492V90.431H37.848V92.411H33.492V98H31.404ZM40.8435 98V85.4H48.7725V87.38H42.9675V90.431H47.5125V92.411H42.9675V96.02H48.9435V98H40.8435ZM50.986 98V85.4H58.915V87.38H53.11V90.431H57.655V92.411H53.11V96.02H59.086V98H50.986ZM61.1286 98V85.4H63.2166V96.128H68.6166V98H61.1286ZM76.6552 98V87.38H73.0552V85.4H82.3522V87.38H78.7432V98H76.6552ZM84.0329 98V85.4H86.1209V90.467H92.1149V85.4H94.2029V98H92.1149V92.429H86.1209V98H84.0329ZM97.0231 98V85.4H104.952V87.38H99.1471V90.431H103.692V92.411H99.1471V96.02H105.123V98H97.0231ZM116.888 98.252C115.628 98.252 114.515 97.982 113.549 97.442C112.583 96.902 111.827 96.143 111.281 95.165C110.735 94.181 110.462 93.026 110.462 91.7C110.462 90.374 110.741 89.222 111.299 88.244C111.857 87.26 112.625 86.498 113.603 85.958C114.581 85.418 115.7 85.148 116.96 85.148C117.614 85.148 118.223 85.22 118.787 85.364C119.351 85.502 119.84 85.676 120.254 85.886L120.029 87.857C119.573 87.647 119.093 87.473 118.589 87.335C118.085 87.191 117.536 87.119 116.942 87.119C116.018 87.119 115.244 87.32 114.62 87.722C114.002 88.118 113.534 88.664 113.216 89.36C112.904 90.05 112.748 90.83 112.748 91.7C112.748 92.57 112.901 93.353 113.207 94.049C113.519 94.739 113.981 95.285 114.593 95.687C115.211 96.083 115.976 96.281 116.888 96.281C117.5 96.281 118.055 96.215 118.553 96.083C119.057 95.951 119.549 95.771 120.029 95.543L120.254 97.523C119.786 97.739 119.27 97.913 118.706 98.045C118.142 98.183 117.536 98.252 116.888 98.252ZM127.491 98.252C126.291 98.252 125.223 97.982 124.287 97.442C123.351 96.902 122.616 96.143 122.082 95.165C121.548 94.181 121.281 93.026 121.281 91.7C121.281 90.374 121.548 89.222 122.082 88.244C122.616 87.26 123.351 86.498 124.287 85.958C125.223 85.418 126.291 85.148 127.491 85.148C128.691 85.148 129.759 85.418 130.695 85.958C131.631 86.498 132.366 87.26 132.9 88.244C133.434 89.222 133.701 90.374 133.701 91.7C133.701 93.026 133.434 94.181 132.9 95.165C132.366 96.143 131.631 96.902 130.695 97.442C129.759 97.982 128.691 98.252 127.491 98.252ZM127.491 96.227C128.373 96.227 129.111 96.032 129.705 95.642C130.299 95.246 130.746 94.706 131.046 94.022C131.346 93.338 131.496 92.564 131.496 91.7C131.496 90.836 131.346 90.062 131.046 89.378C130.746 88.694 130.299 88.157 129.705 87.767C129.111 87.371 128.373 87.173 127.491 87.173C126.603 87.173 125.862 87.371 125.268 87.767C124.674 88.157 124.227 88.694 123.927 89.378C123.627 90.062 123.477 90.836 123.477 91.7C123.477 92.564 123.627 93.338 123.927 94.022C124.227 94.706 124.674 95.246 125.268 95.642C125.862 96.032 126.603 96.227 127.491 96.227ZM135.075 98L136.803 85.4H138.531L141.699 91.322L144.831 85.4H146.577L148.296 98H146.118L144.885 88.235L145.452 88.343L141.699 95.228L137.919 88.352L138.486 88.253L137.253 98H135.075ZM150.425 98V85.4H158.156V87.38H152.513V90.431H156.869V92.411H152.513V98H150.425ZM165.231 98.252C164.031 98.252 162.963 97.982 162.027 97.442C161.091 96.902 160.356 96.143 159.822 95.165C159.288 94.181 159.021 93.026 159.021 91.7C159.021 90.374 159.288 89.222 159.822 88.244C160.356 87.26 161.091 86.498 162.027 85.958C162.963 85.418 164.031 85.148 165.231 85.148C166.431 85.148 167.499 85.418 168.435 85.958C169.371 86.498 170.106 87.26 170.64 88.244C171.174 89.222 171.441 90.374 171.441 91.7C171.441 93.026 171.174 94.181 170.64 95.165C170.106 96.143 169.371 96.902 168.435 97.442C167.499 97.982 166.431 98.252 165.231 98.252ZM165.231 96.227C166.113 96.227 166.851 96.032 167.445 95.642C168.039 95.246 168.486 94.706 168.786 94.022C169.086 93.338 169.236 92.564 169.236 91.7C169.236 90.836 169.086 90.062 168.786 89.378C168.486 88.694 168.039 88.157 167.445 87.767C166.851 87.371 166.113 87.173 165.231 87.173C164.343 87.173 163.602 87.371 163.008 87.767C162.414 88.157 161.967 88.694 161.667 89.378C161.367 90.062 161.217 90.836 161.217 91.7C161.217 92.564 161.367 93.338 161.667 94.022C161.967 94.706 162.414 95.246 163.008 95.642C163.602 96.032 164.343 96.227 165.231 96.227ZM173.506 98V85.4H177.925C178.795 85.4 179.557 85.538 180.211 85.814C180.865 86.084 181.372 86.501 181.732 87.065C182.092 87.629 182.272 88.349 182.272 89.225C182.272 90.125 182.077 90.854 181.687 91.412C181.303 91.97 180.778 92.411 180.112 92.735L182.947 98H180.553L178.069 93.239C178.051 93.239 178.036 93.239 178.024 93.239C178.012 93.239 177.997 93.239 177.979 93.239H175.63V98H173.506ZM175.63 91.457H177.529C178.447 91.457 179.101 91.259 179.491 90.863C179.887 90.461 180.085 89.942 180.085 89.306C180.085 88.634 179.89 88.112 179.5 87.74C179.11 87.368 178.471 87.182 177.583 87.182H175.63V91.457ZM186.923 98V87.38H183.323V85.4H192.62V87.38H189.011V98H186.923Z" fill="black"/>
<path d="M34.1196 130.8H33.0342V122.472H30.1143V121.52H37.0269V122.472H34.1196V130.8ZM39.3247 120.923V123.875C39.3247 124.044 39.3205 124.215 39.312 124.389C39.3035 124.558 39.2887 124.715 39.2676 124.859H39.3374C39.4813 124.613 39.6632 124.408 39.8833 124.243C40.1076 124.074 40.3615 123.947 40.645 123.862C40.9285 123.773 41.229 123.729 41.5464 123.729C42.105 123.729 42.5705 123.818 42.9429 123.995C43.3195 124.173 43.6009 124.448 43.7871 124.821C43.9775 125.193 44.0728 125.675 44.0728 126.268V130.8H43.0317V126.338C43.0317 125.758 42.8984 125.324 42.6318 125.036C42.3695 124.749 41.9653 124.605 41.4194 124.605C40.9032 124.605 40.4906 124.704 40.1816 124.903C39.877 125.098 39.6569 125.385 39.5215 125.766C39.3903 126.147 39.3247 126.613 39.3247 127.163V130.8H38.271V120.923H39.3247ZM48.9224 123.716C49.5148 123.716 50.0226 123.847 50.4458 124.11C50.869 124.372 51.1927 124.74 51.417 125.214C51.6413 125.684 51.7534 126.234 51.7534 126.865V127.518H46.9482C46.9609 128.335 47.1641 128.957 47.5576 129.385C47.9512 129.812 48.5055 130.026 49.2207 130.026C49.6608 130.026 50.0501 129.985 50.3887 129.905C50.7272 129.825 51.0785 129.706 51.4424 129.55V130.476C51.0911 130.633 50.742 130.747 50.395 130.819C50.0522 130.891 49.646 130.927 49.1763 130.927C48.5076 130.927 47.9237 130.792 47.4243 130.521C46.9292 130.246 46.5441 129.844 46.269 129.315C45.994 128.786 45.8564 128.138 45.8564 127.372C45.8564 126.623 45.9813 125.976 46.231 125.43C46.4849 124.88 46.8403 124.457 47.2974 124.16C47.7586 123.864 48.3003 123.716 48.9224 123.716ZM48.9097 124.579C48.3468 124.579 47.8983 124.763 47.564 125.132C47.2297 125.5 47.0308 126.014 46.9673 126.674H50.6489C50.6447 126.259 50.5791 125.895 50.4521 125.582C50.3294 125.265 50.1411 125.019 49.8872 124.846C49.6333 124.668 49.3075 124.579 48.9097 124.579ZM60.0181 124.668H58.2852V130.8H57.2314V124.668H56V124.16L57.2314 123.811V123.348C57.2314 122.764 57.3182 122.29 57.4917 121.926C57.6652 121.558 57.917 121.287 58.2471 121.114C58.5771 120.94 58.9792 120.853 59.4531 120.853C59.7197 120.853 59.9631 120.877 60.1831 120.923C60.4074 120.97 60.6042 121.023 60.7734 121.082L60.5005 121.913C60.3566 121.867 60.1937 121.824 60.0117 121.786C59.834 121.744 59.652 121.723 59.4658 121.723C59.0638 121.723 58.7655 121.854 58.5708 122.116C58.3804 122.375 58.2852 122.781 58.2852 123.335V123.843H60.0181V124.668ZM62.3477 123.843V130.8H61.2939V123.843H62.3477ZM61.8335 121.24C62.007 121.24 62.1551 121.298 62.2778 121.412C62.4048 121.522 62.4683 121.695 62.4683 121.932C62.4683 122.165 62.4048 122.339 62.2778 122.453C62.1551 122.567 62.007 122.624 61.8335 122.624C61.6515 122.624 61.4992 122.567 61.3765 122.453C61.258 122.339 61.1987 122.165 61.1987 121.932C61.1987 121.695 61.258 121.522 61.3765 121.412C61.4992 121.298 61.6515 121.24 61.8335 121.24ZM67.7368 123.716C67.8765 123.716 68.0225 123.725 68.1748 123.741C68.3271 123.754 68.4626 123.773 68.5811 123.799L68.4478 124.776C68.3335 124.747 68.2065 124.723 68.0669 124.706C67.9272 124.689 67.7961 124.681 67.6733 124.681C67.394 124.681 67.1296 124.738 66.8799 124.852C66.6344 124.962 66.4186 125.123 66.2324 125.335C66.0462 125.542 65.9002 125.794 65.7944 126.09C65.6886 126.382 65.6357 126.708 65.6357 127.068V130.8H64.5757V123.843H65.4517L65.5659 125.125H65.6104C65.7542 124.867 65.9277 124.632 66.1309 124.421C66.334 124.205 66.5688 124.033 66.8354 123.906C67.1063 123.78 67.4067 123.716 67.7368 123.716ZM74.3955 128.896C74.3955 129.34 74.2834 129.715 74.0591 130.019C73.839 130.32 73.5216 130.546 73.1069 130.698C72.6965 130.851 72.2056 130.927 71.6343 130.927C71.1476 130.927 70.7266 130.889 70.3711 130.813C70.0156 130.737 69.7046 130.629 69.438 130.489V129.518C69.7215 129.657 70.0601 129.784 70.4536 129.899C70.8472 130.013 71.2492 130.07 71.6597 130.07C72.2606 130.07 72.6965 129.973 72.9673 129.778C73.2381 129.583 73.3735 129.319 73.3735 128.985C73.3735 128.794 73.3185 128.627 73.2085 128.483C73.1027 128.335 72.9229 128.193 72.6689 128.058C72.415 127.918 72.0638 127.766 71.6152 127.601C71.1709 127.432 70.7858 127.264 70.46 127.099C70.1383 126.93 69.8887 126.725 69.7109 126.484C69.5374 126.242 69.4507 125.929 69.4507 125.544C69.4507 124.956 69.6877 124.505 70.1616 124.192C70.6398 123.875 71.2661 123.716 72.0405 123.716C72.4595 123.716 72.8509 123.758 73.2148 123.843C73.583 123.923 73.9258 124.033 74.2432 124.173L73.8877 125.017C73.5999 124.895 73.2931 124.791 72.9673 124.706C72.6414 124.622 72.3092 124.579 71.9707 124.579C71.484 124.579 71.1095 124.66 70.8472 124.821C70.589 124.981 70.46 125.201 70.46 125.481C70.46 125.697 70.5192 125.874 70.6377 126.014C70.7604 126.154 70.9551 126.285 71.2217 126.407C71.4883 126.53 71.8395 126.674 72.2754 126.839C72.7113 127 73.0879 127.167 73.4053 127.341C73.7227 127.51 73.966 127.717 74.1353 127.963C74.3088 128.204 74.3955 128.515 74.3955 128.896ZM78.3374 130.064C78.5109 130.064 78.6886 130.049 78.8706 130.019C79.0526 129.99 79.2007 129.954 79.3149 129.911V130.73C79.1922 130.785 79.0208 130.832 78.8008 130.87C78.585 130.908 78.3734 130.927 78.166 130.927C77.7979 130.927 77.4635 130.864 77.1631 130.737C76.8626 130.605 76.6214 130.385 76.4395 130.076C76.2617 129.767 76.1729 129.34 76.1729 128.794V124.668H75.1826V124.154L76.1792 123.741L76.5981 122.231H77.2329V123.843H79.2705V124.668H77.2329V128.762C77.2329 129.198 77.3324 129.524 77.5312 129.74C77.7344 129.956 78.0031 130.064 78.3374 130.064ZM91.6548 123.716C92.4207 123.716 92.9984 123.917 93.3877 124.319C93.777 124.717 93.9717 125.358 93.9717 126.242V130.8H92.9307V126.293C92.9307 125.73 92.8079 125.309 92.5625 125.03C92.3213 124.747 91.9616 124.605 91.4834 124.605C90.8105 124.605 90.3218 124.799 90.0171 125.189C89.7124 125.578 89.5601 126.151 89.5601 126.909V130.8H88.5127V126.293C88.5127 125.917 88.4577 125.603 88.3477 125.354C88.2419 125.104 88.0811 124.918 87.8652 124.795C87.6536 124.668 87.3849 124.605 87.0591 124.605C86.5978 124.605 86.2275 124.7 85.9482 124.89C85.6689 125.081 85.4658 125.364 85.3389 125.741C85.2161 126.113 85.1548 126.573 85.1548 127.118V130.8H84.1011V123.843H84.9517L85.1104 124.827H85.1675C85.3071 124.586 85.4827 124.383 85.6943 124.218C85.9059 124.052 86.1429 123.928 86.4053 123.843C86.6676 123.758 86.9469 123.716 87.2432 123.716C87.7721 123.716 88.2144 123.816 88.5698 124.014C88.9295 124.209 89.1898 124.507 89.3506 124.909H89.4077C89.6362 124.507 89.9494 124.209 90.3472 124.014C90.745 123.816 91.1808 123.716 91.6548 123.716ZM98.7388 123.729C99.5682 123.729 100.184 123.915 100.586 124.287C100.988 124.66 101.189 125.254 101.189 126.071V130.8H100.421L100.218 129.772H100.167C99.9723 130.026 99.7692 130.239 99.5576 130.413C99.346 130.582 99.1006 130.711 98.8213 130.8C98.5462 130.885 98.2077 130.927 97.8057 130.927C97.3825 130.927 97.0059 130.853 96.6758 130.705C96.3499 130.557 96.0918 130.332 95.9014 130.032C95.7152 129.732 95.6221 129.351 95.6221 128.889C95.6221 128.195 95.8971 127.662 96.4473 127.29C96.9974 126.917 97.8353 126.714 98.9609 126.68L100.161 126.63V126.204C100.161 125.603 100.032 125.182 99.7734 124.941C99.5153 124.7 99.1514 124.579 98.6816 124.579C98.3177 124.579 97.9707 124.632 97.6406 124.738C97.3105 124.844 96.9974 124.969 96.7012 125.113L96.3774 124.313C96.6906 124.152 97.0503 124.014 97.4565 123.9C97.8628 123.786 98.2902 123.729 98.7388 123.729ZM100.148 127.372L99.0879 127.417C98.2204 127.451 97.6089 127.592 97.2534 127.842C96.8979 128.092 96.7202 128.445 96.7202 128.902C96.7202 129.3 96.8408 129.594 97.082 129.784C97.3232 129.975 97.6427 130.07 98.0405 130.07C98.6584 130.07 99.1641 129.899 99.5576 129.556C99.9512 129.213 100.148 128.699 100.148 128.013V127.372ZM105.607 130.064C105.78 130.064 105.958 130.049 106.14 130.019C106.322 129.99 106.47 129.954 106.584 129.911V130.73C106.462 130.785 106.29 130.832 106.07 130.87C105.854 130.908 105.643 130.927 105.436 130.927C105.067 130.927 104.733 130.864 104.433 130.737C104.132 130.605 103.891 130.385 103.709 130.076C103.531 129.767 103.442 129.34 103.442 128.794V124.668H102.452V124.154L103.449 123.741L103.868 122.231H104.502V123.843H106.54V124.668H104.502V128.762C104.502 129.198 104.602 129.524 104.801 129.74C105.004 129.956 105.273 130.064 105.607 130.064ZM110.672 123.716C111.265 123.716 111.773 123.847 112.196 124.11C112.619 124.372 112.943 124.74 113.167 125.214C113.391 125.684 113.503 126.234 113.503 126.865V127.518H108.698C108.711 128.335 108.914 128.957 109.308 129.385C109.701 129.812 110.256 130.026 110.971 130.026C111.411 130.026 111.8 129.985 112.139 129.905C112.477 129.825 112.828 129.706 113.192 129.55V130.476C112.841 130.633 112.492 130.747 112.145 130.819C111.802 130.891 111.396 130.927 110.926 130.927C110.258 130.927 109.674 130.792 109.174 130.521C108.679 130.246 108.294 129.844 108.019 129.315C107.744 128.786 107.606 128.138 107.606 127.372C107.606 126.623 107.731 125.976 107.981 125.43C108.235 124.88 108.59 124.457 109.047 124.16C109.509 123.864 110.05 123.716 110.672 123.716ZM110.66 124.579C110.097 124.579 109.648 124.763 109.314 125.132C108.98 125.5 108.781 126.014 108.717 126.674H112.399C112.395 126.259 112.329 125.895 112.202 125.582C112.079 125.265 111.891 125.019 111.637 124.846C111.383 124.668 111.057 124.579 110.66 124.579ZM121.273 123.729C122.102 123.729 122.718 123.915 123.12 124.287C123.522 124.66 123.723 125.254 123.723 126.071V130.8H122.955L122.752 129.772H122.701C122.507 130.026 122.303 130.239 122.092 130.413C121.88 130.582 121.635 130.711 121.355 130.8C121.08 130.885 120.742 130.927 120.34 130.927C119.917 130.927 119.54 130.853 119.21 130.705C118.884 130.557 118.626 130.332 118.436 130.032C118.249 129.732 118.156 129.351 118.156 128.889C118.156 128.195 118.431 127.662 118.981 127.29C119.532 126.917 120.369 126.714 121.495 126.68L122.695 126.63V126.204C122.695 125.603 122.566 125.182 122.308 124.941C122.049 124.7 121.686 124.579 121.216 124.579C120.852 124.579 120.505 124.632 120.175 124.738C119.845 124.844 119.532 124.969 119.235 125.113L118.912 124.313C119.225 124.152 119.584 124.014 119.991 123.9C120.397 123.786 120.824 123.729 121.273 123.729ZM122.682 127.372L121.622 127.417C120.755 127.451 120.143 127.592 119.788 127.842C119.432 128.092 119.254 128.445 119.254 128.902C119.254 129.3 119.375 129.594 119.616 129.784C119.857 129.975 120.177 130.07 120.575 130.07C121.193 130.07 121.698 129.899 122.092 129.556C122.485 129.213 122.682 128.699 122.682 128.013V127.372ZM129.188 123.716C130.014 123.716 130.638 123.919 131.061 124.325C131.484 124.727 131.696 125.375 131.696 126.268V130.8H130.655V126.338C130.655 125.758 130.521 125.324 130.255 125.036C129.993 124.749 129.588 124.605 129.042 124.605C128.272 124.605 127.731 124.823 127.417 125.259C127.104 125.694 126.948 126.327 126.948 127.156V130.8H125.894V123.843H126.745L126.903 124.846H126.96C127.109 124.601 127.297 124.395 127.525 124.23C127.754 124.061 128.01 123.934 128.293 123.849C128.577 123.76 128.875 123.716 129.188 123.716ZM136.342 130.927C135.462 130.927 134.764 130.627 134.248 130.026C133.736 129.425 133.479 128.532 133.479 127.347C133.479 126.149 133.742 125.246 134.267 124.636C134.791 124.023 135.49 123.716 136.361 123.716C136.729 123.716 137.051 123.765 137.326 123.862C137.601 123.959 137.838 124.091 138.037 124.256C138.236 124.416 138.403 124.601 138.539 124.808H138.615C138.598 124.677 138.581 124.497 138.564 124.268C138.547 124.04 138.539 123.854 138.539 123.71V120.923H139.592V130.8H138.742L138.583 129.81H138.539C138.407 130.017 138.24 130.205 138.037 130.375C137.838 130.544 137.599 130.679 137.32 130.781C137.045 130.878 136.719 130.927 136.342 130.927ZM136.507 130.051C137.252 130.051 137.779 129.839 138.088 129.416C138.397 128.993 138.551 128.365 138.551 127.531V127.341C138.551 126.456 138.403 125.777 138.107 125.303C137.815 124.829 137.282 124.592 136.507 124.592C135.86 124.592 135.375 124.842 135.054 125.341C134.732 125.836 134.571 126.513 134.571 127.372C134.571 128.227 134.73 128.887 135.047 129.353C135.369 129.818 135.856 130.051 136.507 130.051ZM146.257 120.923V123.875C146.257 124.044 146.253 124.215 146.245 124.389C146.236 124.558 146.221 124.715 146.2 124.859H146.27C146.414 124.613 146.596 124.408 146.816 124.243C147.04 124.074 147.294 123.947 147.578 123.862C147.861 123.773 148.162 123.729 148.479 123.729C149.038 123.729 149.503 123.818 149.875 123.995C150.252 124.173 150.534 124.448 150.72 124.821C150.91 125.193 151.005 125.675 151.005 126.268V130.8H149.964V126.338C149.964 125.758 149.831 125.324 149.564 125.036C149.302 124.749 148.898 124.605 148.352 124.605C147.836 124.605 147.423 124.704 147.114 124.903C146.81 125.098 146.59 125.385 146.454 125.766C146.323 126.147 146.257 126.613 146.257 127.163V130.8H145.204V120.923H146.257ZM154.23 123.843V130.8H153.176V123.843H154.23ZM153.716 121.24C153.889 121.24 154.037 121.298 154.16 121.412C154.287 121.522 154.351 121.695 154.351 121.932C154.351 122.165 154.287 122.339 154.16 122.453C154.037 122.567 153.889 122.624 153.716 122.624C153.534 122.624 153.382 122.567 153.259 122.453C153.14 122.339 153.081 122.165 153.081 121.932C153.081 121.695 153.14 121.522 153.259 121.412C153.382 121.298 153.534 121.24 153.716 121.24ZM160.965 128.896C160.965 129.34 160.853 129.715 160.628 130.019C160.408 130.32 160.091 130.546 159.676 130.698C159.266 130.851 158.775 130.927 158.204 130.927C157.717 130.927 157.296 130.889 156.94 130.813C156.585 130.737 156.274 130.629 156.007 130.489V129.518C156.291 129.657 156.629 129.784 157.023 129.899C157.417 130.013 157.819 130.07 158.229 130.07C158.83 130.07 159.266 129.973 159.537 129.778C159.807 129.583 159.943 129.319 159.943 128.985C159.943 128.794 159.888 128.627 159.778 128.483C159.672 128.335 159.492 128.193 159.238 128.058C158.984 127.918 158.633 127.766 158.185 127.601C157.74 127.432 157.355 127.264 157.029 127.099C156.708 126.93 156.458 126.725 156.28 126.484C156.107 126.242 156.02 125.929 156.02 125.544C156.02 124.956 156.257 124.505 156.731 124.192C157.209 123.875 157.835 123.716 158.61 123.716C159.029 123.716 159.42 123.758 159.784 123.843C160.152 123.923 160.495 124.033 160.812 124.173L160.457 125.017C160.169 124.895 159.862 124.791 159.537 124.706C159.211 124.622 158.879 124.579 158.54 124.579C158.053 124.579 157.679 124.66 157.417 124.821C157.158 124.981 157.029 125.201 157.029 125.481C157.029 125.697 157.089 125.874 157.207 126.014C157.33 126.154 157.524 126.285 157.791 126.407C158.058 126.53 158.409 126.674 158.845 126.839C159.281 127 159.657 127.167 159.975 127.341C160.292 127.51 160.535 127.717 160.705 127.963C160.878 128.204 160.965 128.515 160.965 128.896ZM171.432 128.331C171.432 128.881 171.295 129.351 171.02 129.74C170.749 130.125 170.368 130.419 169.877 130.622C169.386 130.825 168.808 130.927 168.144 130.927C167.793 130.927 167.461 130.91 167.147 130.876C166.834 130.842 166.547 130.794 166.284 130.73C166.022 130.667 165.791 130.588 165.592 130.495V129.461C165.91 129.592 166.297 129.715 166.754 129.829C167.211 129.939 167.689 129.994 168.188 129.994C168.654 129.994 169.048 129.933 169.369 129.81C169.691 129.683 169.934 129.503 170.099 129.27C170.268 129.033 170.353 128.75 170.353 128.42C170.353 128.102 170.283 127.838 170.144 127.626C170.004 127.41 169.771 127.216 169.445 127.042C169.124 126.865 168.684 126.676 168.125 126.477C167.731 126.338 167.384 126.185 167.084 126.02C166.784 125.851 166.532 125.661 166.329 125.449C166.125 125.237 165.971 124.992 165.865 124.713C165.764 124.433 165.713 124.114 165.713 123.754C165.713 123.259 165.838 122.836 166.087 122.485C166.341 122.129 166.69 121.858 167.135 121.672C167.583 121.482 168.097 121.386 168.677 121.386C169.172 121.386 169.629 121.433 170.048 121.526C170.472 121.619 170.859 121.744 171.21 121.901L170.874 122.827C170.539 122.688 170.184 122.571 169.807 122.478C169.435 122.385 169.05 122.339 168.652 122.339C168.254 122.339 167.918 122.398 167.643 122.516C167.372 122.631 167.164 122.794 167.021 123.005C166.877 123.217 166.805 123.469 166.805 123.76C166.805 124.086 166.872 124.357 167.008 124.573C167.147 124.789 167.368 124.981 167.668 125.151C167.973 125.316 168.375 125.489 168.874 125.671C169.42 125.87 169.883 126.082 170.264 126.306C170.645 126.526 170.935 126.797 171.134 127.118C171.333 127.436 171.432 127.84 171.432 128.331ZM174.219 120.923V126.052C174.219 126.221 174.212 126.429 174.2 126.674C174.187 126.915 174.176 127.129 174.168 127.315H174.212C174.301 127.205 174.43 127.042 174.6 126.826C174.773 126.611 174.919 126.437 175.038 126.306L177.348 123.843H178.586L175.787 126.814L178.789 130.8H177.52L175.063 127.506L174.219 128.28V130.8H173.171V120.923H174.219ZM181.055 123.843V130.8H180.001V123.843H181.055ZM180.541 121.24C180.715 121.24 180.863 121.298 180.985 121.412C181.112 121.522 181.176 121.695 181.176 121.932C181.176 122.165 181.112 122.339 180.985 122.453C180.863 122.567 180.715 122.624 180.541 122.624C180.359 122.624 180.207 122.567 180.084 122.453C179.965 122.339 179.906 122.165 179.906 121.932C179.906 121.695 179.965 121.522 180.084 121.412C180.207 121.298 180.359 121.24 180.541 121.24ZM186.559 123.716C187.426 123.716 188.118 124.014 188.634 124.611C189.151 125.208 189.409 126.105 189.409 127.302C189.409 128.094 189.29 128.758 189.053 129.296C188.816 129.833 188.482 130.239 188.05 130.514C187.623 130.789 187.117 130.927 186.533 130.927C186.165 130.927 185.841 130.878 185.562 130.781C185.283 130.684 185.044 130.552 184.845 130.387C184.646 130.222 184.481 130.043 184.35 129.848H184.273C184.286 130.013 184.301 130.212 184.318 130.445C184.339 130.677 184.35 130.88 184.35 131.054V133.91H183.29V123.843H184.159L184.299 124.871H184.35C184.485 124.66 184.65 124.467 184.845 124.294C185.039 124.116 185.276 123.976 185.556 123.875C185.839 123.769 186.174 123.716 186.559 123.716ZM186.375 124.605C185.892 124.605 185.503 124.698 185.207 124.884C184.915 125.07 184.701 125.35 184.565 125.722C184.43 126.09 184.358 126.553 184.35 127.112V127.315C184.35 127.903 184.413 128.401 184.54 128.807C184.671 129.213 184.885 129.522 185.181 129.734C185.482 129.945 185.884 130.051 186.387 130.051C186.819 130.051 187.179 129.935 187.466 129.702C187.754 129.469 187.968 129.145 188.107 128.731C188.251 128.312 188.323 127.831 188.323 127.29C188.323 126.469 188.162 125.817 187.841 125.335C187.523 124.848 187.035 124.605 186.375 124.605ZM194.519 123.716C195.386 123.716 196.078 124.014 196.594 124.611C197.111 125.208 197.369 126.105 197.369 127.302C197.369 128.094 197.25 128.758 197.013 129.296C196.776 129.833 196.442 130.239 196.01 130.514C195.583 130.789 195.077 130.927 194.493 130.927C194.125 130.927 193.801 130.878 193.522 130.781C193.243 130.684 193.004 130.552 192.805 130.387C192.606 130.222 192.441 130.043 192.31 129.848H192.233C192.246 130.013 192.261 130.212 192.278 130.445C192.299 130.677 192.31 130.88 192.31 131.054V133.91H191.25V123.843H192.119L192.259 124.871H192.31C192.445 124.66 192.61 124.467 192.805 124.294C192.999 124.116 193.236 123.976 193.516 123.875C193.799 123.769 194.133 123.716 194.519 123.716ZM194.334 124.605C193.852 124.605 193.463 124.698 193.167 124.884C192.875 125.07 192.661 125.35 192.525 125.722C192.39 126.09 192.318 126.553 192.31 127.112V127.315C192.31 127.903 192.373 128.401 192.5 128.807C192.631 129.213 192.845 129.522 193.141 129.734C193.442 129.945 193.844 130.051 194.347 130.051C194.779 130.051 195.139 129.935 195.426 129.702C195.714 129.469 195.928 129.145 196.067 128.731C196.211 128.312 196.283 127.831 196.283 127.29C196.283 126.469 196.122 125.817 195.801 125.335C195.483 124.848 194.995 124.605 194.334 124.605ZM201.888 123.716C202.481 123.716 202.988 123.847 203.412 124.11C203.835 124.372 204.159 124.74 204.383 125.214C204.607 125.684 204.719 126.234 204.719 126.865V127.518H199.914C199.927 128.335 200.13 128.957 200.523 129.385C200.917 129.812 201.471 130.026 202.187 130.026C202.627 130.026 203.016 129.985 203.354 129.905C203.693 129.825 204.044 129.706 204.408 129.55V130.476C204.057 130.633 203.708 130.747 203.361 130.819C203.018 130.891 202.612 130.927 202.142 130.927C201.473 130.927 200.889 130.792 200.39 130.521C199.895 130.246 199.51 129.844 199.235 129.315C198.96 128.786 198.822 128.138 198.822 127.372C198.822 126.623 198.947 125.976 199.197 125.43C199.451 124.88 199.806 124.457 200.263 124.16C200.724 123.864 201.266 123.716 201.888 123.716ZM201.875 124.579C201.313 124.579 200.864 124.763 200.53 125.132C200.195 125.5 199.997 126.014 199.933 126.674H203.615C203.611 126.259 203.545 125.895 203.418 125.582C203.295 125.265 203.107 125.019 202.853 124.846C202.599 124.668 202.273 124.579 201.875 124.579ZM209.67 123.716C209.81 123.716 209.956 123.725 210.108 123.741C210.261 123.754 210.396 123.773 210.515 123.799L210.381 124.776C210.267 124.747 210.14 124.723 210 124.706C209.861 124.689 209.73 124.681 209.607 124.681C209.328 124.681 209.063 124.738 208.813 124.852C208.568 124.962 208.352 125.123 208.166 125.335C207.98 125.542 207.834 125.794 207.728 126.09C207.622 126.382 207.569 126.708 207.569 127.068V130.8H206.509V123.843H207.385L207.5 125.125H207.544C207.688 124.867 207.861 124.632 208.064 124.421C208.268 124.205 208.502 124.033 208.769 123.906C209.04 123.78 209.34 123.716 209.67 123.716ZM217.453 130.064C217.626 130.064 217.804 130.049 217.986 130.019C218.168 129.99 218.316 129.954 218.43 129.911V130.73C218.307 130.785 218.136 130.832 217.916 130.87C217.7 130.908 217.489 130.927 217.281 130.927C216.913 130.927 216.579 130.864 216.278 130.737C215.978 130.605 215.737 130.385 215.555 130.076C215.377 129.767 215.288 129.34 215.288 128.794V124.668H214.298V124.154L215.294 123.741L215.713 122.231H216.348V123.843H218.386V124.668H216.348V128.762C216.348 129.198 216.448 129.524 216.646 129.74C216.85 129.956 217.118 130.064 217.453 130.064ZM225.838 127.309C225.838 127.88 225.764 128.39 225.616 128.839C225.468 129.287 225.254 129.666 224.975 129.975C224.695 130.284 224.357 130.521 223.959 130.686C223.565 130.847 223.119 130.927 222.62 130.927C222.154 130.927 221.727 130.847 221.337 130.686C220.952 130.521 220.618 130.284 220.334 129.975C220.055 129.666 219.837 129.287 219.681 128.839C219.528 128.39 219.452 127.88 219.452 127.309C219.452 126.547 219.581 125.9 219.839 125.366C220.097 124.829 220.466 124.421 220.944 124.141C221.426 123.858 222 123.716 222.664 123.716C223.299 123.716 223.853 123.858 224.327 124.141C224.805 124.425 225.176 124.835 225.438 125.373C225.705 125.906 225.838 126.551 225.838 127.309ZM220.544 127.309C220.544 127.867 220.618 128.352 220.766 128.762C220.914 129.173 221.143 129.49 221.452 129.715C221.761 129.939 222.158 130.051 222.645 130.051C223.127 130.051 223.523 129.939 223.832 129.715C224.145 129.49 224.376 129.173 224.524 128.762C224.672 128.352 224.746 127.867 224.746 127.309C224.746 126.754 224.672 126.276 224.524 125.874C224.376 125.468 224.147 125.155 223.838 124.935C223.529 124.715 223.13 124.605 222.639 124.605C221.915 124.605 221.384 124.844 221.045 125.322C220.711 125.8 220.544 126.462 220.544 127.309ZM233.658 127.309C233.658 127.88 233.584 128.39 233.436 128.839C233.288 129.287 233.074 129.666 232.795 129.975C232.516 130.284 232.177 130.521 231.779 130.686C231.386 130.847 230.939 130.927 230.44 130.927C229.974 130.927 229.547 130.847 229.158 130.686C228.773 130.521 228.438 130.284 228.155 129.975C227.875 129.666 227.658 129.287 227.501 128.839C227.349 128.39 227.272 127.88 227.272 127.309C227.272 126.547 227.402 125.9 227.66 125.366C227.918 124.829 228.286 124.421 228.764 124.141C229.247 123.858 229.82 123.716 230.484 123.716C231.119 123.716 231.674 123.858 232.147 124.141C232.626 124.425 232.996 124.835 233.258 125.373C233.525 125.906 233.658 126.551 233.658 127.309ZM228.364 127.309C228.364 127.867 228.438 128.352 228.586 128.762C228.735 129.173 228.963 129.49 229.272 129.715C229.581 129.939 229.979 130.051 230.465 130.051C230.948 130.051 231.343 129.939 231.652 129.715C231.965 129.49 232.196 129.173 232.344 128.762C232.492 128.352 232.566 127.867 232.566 127.309C232.566 126.754 232.492 126.276 232.344 125.874C232.196 125.468 231.968 125.155 231.659 124.935C231.35 124.715 230.95 124.605 230.459 124.605C229.735 124.605 229.204 124.844 228.866 125.322C228.531 125.8 228.364 126.462 228.364 127.309ZM244.519 130.787L243.281 126.738C243.226 126.564 243.173 126.395 243.123 126.23C243.076 126.06 243.032 125.9 242.989 125.747C242.951 125.591 242.915 125.447 242.881 125.316C242.852 125.18 242.826 125.064 242.805 124.967H242.761C242.744 125.064 242.721 125.18 242.691 125.316C242.661 125.447 242.625 125.591 242.583 125.747C242.545 125.904 242.503 126.069 242.456 126.242C242.41 126.412 242.357 126.583 242.297 126.757L241.002 130.787H239.815L237.898 123.83H238.99L239.993 127.671C240.061 127.925 240.124 128.176 240.184 128.426C240.247 128.671 240.3 128.904 240.342 129.124C240.389 129.34 240.423 129.528 240.444 129.689H240.495C240.52 129.583 240.548 129.456 240.577 129.308C240.611 129.16 240.647 129.004 240.685 128.839C240.727 128.669 240.772 128.502 240.818 128.337C240.865 128.168 240.911 128.009 240.958 127.861L242.24 123.83H243.376L244.614 127.855C244.678 128.058 244.739 128.269 244.798 128.49C244.862 128.71 244.919 128.923 244.97 129.131C245.021 129.334 245.056 129.516 245.078 129.677H245.128C245.145 129.533 245.177 129.355 245.224 129.143C245.27 128.932 245.323 128.699 245.382 128.445C245.446 128.191 245.511 127.933 245.579 127.671L246.595 123.83H247.667L245.744 130.787H244.519ZM249.991 123.843V130.8H248.937V123.843H249.991ZM249.477 121.24C249.65 121.24 249.798 121.298 249.921 121.412C250.048 121.522 250.111 121.695 250.111 121.932C250.111 122.165 250.048 122.339 249.921 122.453C249.798 122.567 249.65 122.624 249.477 122.624C249.295 122.624 249.142 122.567 249.02 122.453C248.901 122.339 248.842 122.165 248.842 121.932C248.842 121.695 248.901 121.522 249.02 121.412C249.142 121.298 249.295 121.24 249.477 121.24ZM253.285 130.8H252.225V120.923H253.285V130.8ZM256.573 130.8H255.513V120.923H256.573V130.8ZM264.654 130.927C263.774 130.927 263.075 130.627 262.559 130.026C262.047 129.425 261.791 128.532 261.791 127.347C261.791 126.149 262.053 125.246 262.578 124.636C263.103 124.023 263.801 123.716 264.673 123.716C265.041 123.716 265.363 123.765 265.638 123.862C265.913 123.959 266.15 124.091 266.349 124.256C266.548 124.416 266.715 124.601 266.85 124.808H266.926C266.909 124.677 266.892 124.497 266.875 124.268C266.859 124.04 266.85 123.854 266.85 123.71V120.923H267.904V130.8H267.053L266.895 129.81H266.85C266.719 130.017 266.552 130.205 266.349 130.375C266.15 130.544 265.911 130.679 265.631 130.781C265.356 130.878 265.03 130.927 264.654 130.927ZM264.819 130.051C265.564 130.051 266.09 129.839 266.399 129.416C266.708 128.993 266.863 128.365 266.863 127.531V127.341C266.863 126.456 266.715 125.777 266.418 125.303C266.126 124.829 265.593 124.592 264.819 124.592C264.171 124.592 263.687 124.842 263.365 125.341C263.044 125.836 262.883 126.513 262.883 127.372C262.883 128.227 263.042 128.887 263.359 129.353C263.681 129.818 264.167 130.051 264.819 130.051ZM276.137 127.309C276.137 127.88 276.063 128.39 275.915 128.839C275.766 129.287 275.553 129.666 275.273 129.975C274.994 130.284 274.656 130.521 274.258 130.686C273.864 130.847 273.418 130.927 272.918 130.927C272.453 130.927 272.026 130.847 271.636 130.686C271.251 130.521 270.917 130.284 270.633 129.975C270.354 129.666 270.136 129.287 269.979 128.839C269.827 128.39 269.751 127.88 269.751 127.309C269.751 126.547 269.88 125.9 270.138 125.366C270.396 124.829 270.764 124.421 271.243 124.141C271.725 123.858 272.299 123.716 272.963 123.716C273.598 123.716 274.152 123.858 274.626 124.141C275.104 124.425 275.474 124.835 275.737 125.373C276.003 125.906 276.137 126.551 276.137 127.309ZM270.843 127.309C270.843 127.867 270.917 128.352 271.065 128.762C271.213 129.173 271.442 129.49 271.75 129.715C272.059 129.939 272.457 130.051 272.944 130.051C273.426 130.051 273.822 129.939 274.131 129.715C274.444 129.49 274.675 129.173 274.823 128.762C274.971 128.352 275.045 127.867 275.045 127.309C275.045 126.754 274.971 126.276 274.823 125.874C274.675 125.468 274.446 125.155 274.137 124.935C273.828 124.715 273.428 124.605 272.938 124.605C272.214 124.605 271.683 124.844 271.344 125.322C271.01 125.8 270.843 126.462 270.843 127.309ZM33.3579 155.064C33.5314 155.064 33.7091 155.049 33.8911 155.019C34.0731 154.99 34.2212 154.954 34.3354 154.911V155.73C34.2127 155.785 34.0413 155.832 33.8213 155.87C33.6055 155.908 33.3939 155.927 33.1865 155.927C32.8184 155.927 32.484 155.864 32.1836 155.737C31.8831 155.605 31.6419 155.385 31.46 155.076C31.2822 154.767 31.1934 154.34 31.1934 153.794V149.668H30.2031V149.154L31.1997 148.741L31.6187 147.231H32.2534V148.843H34.291V149.668H32.2534V153.762C32.2534 154.198 32.3529 154.524 32.5518 154.74C32.7549 154.956 33.0236 155.064 33.3579 155.064ZM36.7983 145.923V148.875C36.7983 149.044 36.7941 149.215 36.7856 149.389C36.7772 149.558 36.7624 149.715 36.7412 149.859H36.811C36.9549 149.613 37.1369 149.408 37.3569 149.243C37.5812 149.074 37.8351 148.947 38.1187 148.862C38.4022 148.773 38.7026 148.729 39.02 148.729C39.5786 148.729 40.0441 148.818 40.4165 148.995C40.7931 149.173 41.0745 149.448 41.2607 149.821C41.4512 150.193 41.5464 150.675 41.5464 151.268V155.8H40.5054V151.338C40.5054 150.758 40.3721 150.324 40.1055 150.036C39.8431 149.749 39.439 149.605 38.8931 149.605C38.3768 149.605 37.9642 149.704 37.6553 149.903C37.3506 150.098 37.1305 150.385 36.9951 150.766C36.8639 151.147 36.7983 151.613 36.7983 152.163V155.8H35.7446V145.923H36.7983ZM46.396 148.716C46.9884 148.716 47.4963 148.847 47.9194 149.11C48.3426 149.372 48.6663 149.74 48.8906 150.214C49.1149 150.684 49.2271 151.234 49.2271 151.865V152.518H44.4219C44.4346 153.335 44.6377 153.957 45.0312 154.385C45.4248 154.812 45.9792 155.026 46.6943 155.026C47.1344 155.026 47.5238 154.985 47.8623 154.905C48.2008 154.825 48.5521 154.706 48.916 154.55V155.476C48.5648 155.633 48.2157 155.747 47.8687 155.819C47.5259 155.891 47.1196 155.927 46.6499 155.927C45.9813 155.927 45.3973 155.792 44.8979 155.521C44.4028 155.246 44.0177 154.844 43.7427 154.315C43.4676 153.786 43.3301 153.138 43.3301 152.372C43.3301 151.623 43.4549 150.976 43.7046 150.43C43.9585 149.88 44.314 149.457 44.771 149.16C45.2323 148.864 45.7739 148.716 46.396 148.716ZM46.3833 149.579C45.8205 149.579 45.3719 149.763 45.0376 150.132C44.7033 150.5 44.5044 151.014 44.4409 151.674H48.1226C48.1183 151.259 48.0527 150.895 47.9258 150.582C47.8031 150.265 47.6147 150.019 47.3608 149.846C47.1069 149.668 46.7811 149.579 46.3833 149.579ZM52.0708 148.843V155.8H51.0171V148.843H52.0708ZM51.5566 146.24C51.7301 146.24 51.8783 146.298 52.001 146.412C52.1279 146.522 52.1914 146.695 52.1914 146.932C52.1914 147.165 52.1279 147.339 52.001 147.453C51.8783 147.567 51.7301 147.624 51.5566 147.624C51.3747 147.624 51.2223 147.567 51.0996 147.453C50.9811 147.339 50.9219 147.165 50.9219 146.932C50.9219 146.695 50.9811 146.522 51.0996 146.412C51.2223 146.298 51.3747 146.24 51.5566 146.24ZM57.4663 148.716C57.606 148.716 57.752 148.725 57.9043 148.741C58.0566 148.754 58.1921 148.773 58.3105 148.799L58.1772 149.776C58.063 149.747 57.936 149.723 57.7964 149.706C57.6567 149.689 57.5256 149.681 57.4028 149.681C57.1235 149.681 56.859 149.738 56.6094 149.852C56.3639 149.962 56.1481 150.123 55.9619 150.335C55.7757 150.542 55.6297 150.794 55.5239 151.09C55.4181 151.382 55.3652 151.708 55.3652 152.068V155.8H54.3052V148.843H55.1812L55.2954 150.125H55.3398C55.4837 149.867 55.6572 149.632 55.8604 149.421C56.0635 149.205 56.2983 149.033 56.5649 148.906C56.8358 148.78 57.1362 148.716 57.4663 148.716ZM64.5312 155.8L61.8906 148.843H63.0205L64.5503 153.052C64.6561 153.339 64.764 153.657 64.874 154.004C64.984 154.351 65.0602 154.63 65.1025 154.842H65.147C65.1978 154.63 65.2824 154.351 65.4009 154.004C65.5194 153.652 65.6273 153.335 65.7246 153.052L67.2544 148.843H68.3843L65.7373 155.8H64.5312ZM72.1802 148.716C72.7726 148.716 73.2804 148.847 73.7036 149.11C74.1268 149.372 74.4505 149.74 74.6748 150.214C74.8991 150.684 75.0112 151.234 75.0112 151.865V152.518H70.2061C70.2188 153.335 70.4219 153.957 70.8154 154.385C71.209 154.812 71.7633 155.026 72.4785 155.026C72.9186 155.026 73.3079 154.985 73.6465 154.905C73.985 154.825 74.3363 154.706 74.7002 154.55V155.476C74.349 155.633 73.9998 155.747 73.6528 155.819C73.3101 155.891 72.9038 155.927 72.4341 155.927C71.7655 155.927 71.1815 155.792 70.6821 155.521C70.187 155.246 69.8019 154.844 69.5269 154.315C69.2518 153.786 69.1143 153.138 69.1143 152.372C69.1143 151.623 69.2391 150.976 69.4888 150.43C69.7427 149.88 70.0981 149.457 70.5552 149.16C71.0164 148.864 71.5581 148.716 72.1802 148.716ZM72.1675 149.579C71.6047 149.579 71.1561 149.763 70.8218 150.132C70.4875 150.5 70.2886 151.014 70.2251 151.674H73.9067C73.9025 151.259 73.8369 150.895 73.71 150.582C73.5872 150.265 73.3989 150.019 73.145 149.846C72.8911 149.668 72.5653 149.579 72.1675 149.579ZM79.9624 148.716C80.1021 148.716 80.248 148.725 80.4004 148.741C80.5527 148.754 80.6882 148.773 80.8066 148.799L80.6733 149.776C80.5591 149.747 80.4321 149.723 80.2925 149.706C80.1528 149.689 80.0216 149.681 79.8989 149.681C79.6196 149.681 79.3551 149.738 79.1055 149.852C78.86 149.962 78.6442 150.123 78.458 150.335C78.2718 150.542 78.1258 150.794 78.02 151.09C77.9142 151.382 77.8613 151.708 77.8613 152.068V155.8H76.8013V148.843H77.6772L77.7915 150.125H77.8359C77.9798 149.867 78.1533 149.632 78.3564 149.421C78.5596 149.205 78.7944 149.033 79.061 148.906C79.3319 148.78 79.6323 148.716 79.9624 148.716ZM81.0225 148.843H82.1523L83.6885 152.88C83.7773 153.117 83.8599 153.346 83.936 153.566C84.0122 153.781 84.0799 153.989 84.1392 154.188C84.1984 154.387 84.245 154.579 84.2788 154.765H84.3232C84.3825 154.554 84.4671 154.277 84.5771 153.934C84.6872 153.587 84.8057 153.233 84.9326 152.874L86.3862 148.843H87.5225L84.4946 156.822C84.3338 157.249 84.1455 157.622 83.9297 157.939C83.7181 158.257 83.46 158.5 83.1553 158.669C82.8506 158.843 82.4824 158.929 82.0508 158.929C81.8519 158.929 81.6763 158.917 81.5239 158.891C81.3716 158.87 81.2404 158.845 81.1304 158.815V157.971C81.2235 157.992 81.3356 158.011 81.4668 158.028C81.6022 158.045 81.7419 158.053 81.8857 158.053C82.1481 158.053 82.3745 158.003 82.5649 157.901C82.7596 157.804 82.9268 157.66 83.0664 157.469C83.2061 157.279 83.3267 157.053 83.4282 156.79L83.8091 155.813L81.0225 148.843ZM93.064 145.923V148.392C93.064 148.676 93.0555 148.951 93.0386 149.218C93.0259 149.484 93.0153 149.691 93.0068 149.84H93.064C93.2544 149.526 93.5295 149.262 93.8892 149.046C94.2489 148.83 94.708 148.722 95.2666 148.722C96.1383 148.722 96.8324 149.025 97.3486 149.63C97.8691 150.231 98.1294 151.126 98.1294 152.315C98.1294 153.098 98.0109 153.758 97.7739 154.296C97.5369 154.833 97.2026 155.239 96.771 155.514C96.3394 155.789 95.8294 155.927 95.2412 155.927C94.6911 155.927 94.2383 155.825 93.8828 155.622C93.5316 155.415 93.2607 155.163 93.0703 154.867H92.9878L92.772 155.8H92.0103V145.923H93.064ZM95.0952 149.605C94.5916 149.605 94.1917 149.704 93.8955 149.903C93.5993 150.098 93.3856 150.394 93.2544 150.792C93.1274 151.185 93.064 151.685 93.064 152.29V152.347C93.064 153.223 93.21 153.894 93.502 154.359C93.7939 154.82 94.325 155.051 95.0952 155.051C95.7427 155.051 96.2272 154.814 96.5488 154.34C96.8747 153.866 97.0376 153.189 97.0376 152.309C97.0376 151.412 96.8768 150.737 96.5552 150.284C96.2378 149.831 95.7511 149.605 95.0952 149.605ZM102.649 148.716C103.241 148.716 103.749 148.847 104.172 149.11C104.596 149.372 104.919 149.74 105.144 150.214C105.368 150.684 105.48 151.234 105.48 151.865V152.518H100.675C100.688 153.335 100.891 153.957 101.284 154.385C101.678 154.812 102.232 155.026 102.947 155.026C103.387 155.026 103.777 154.985 104.115 154.905C104.454 154.825 104.805 154.706 105.169 154.55V155.476C104.818 155.633 104.469 155.747 104.122 155.819C103.779 155.891 103.373 155.927 102.903 155.927C102.234 155.927 101.65 155.792 101.151 155.521C100.656 155.246 100.271 154.844 99.9956 154.315C99.7205 153.786 99.583 153.138 99.583 152.372C99.583 151.623 99.7078 150.976 99.9575 150.43C100.211 149.88 100.567 149.457 101.024 149.16C101.485 148.864 102.027 148.716 102.649 148.716ZM102.636 149.579C102.073 149.579 101.625 149.763 101.291 150.132C100.956 150.5 100.757 151.014 100.694 151.674H104.375C104.371 151.259 104.306 150.895 104.179 150.582C104.056 150.265 103.868 150.019 103.614 149.846C103.36 149.668 103.034 149.579 102.636 149.579ZM111.771 153.896C111.771 154.34 111.658 154.715 111.434 155.019C111.214 155.32 110.897 155.546 110.482 155.698C110.071 155.851 109.581 155.927 109.009 155.927C108.523 155.927 108.102 155.889 107.746 155.813C107.391 155.737 107.08 155.629 106.813 155.489V154.518C107.097 154.657 107.435 154.784 107.829 154.899C108.222 155.013 108.624 155.07 109.035 155.07C109.636 155.07 110.071 154.973 110.342 154.778C110.613 154.583 110.749 154.319 110.749 153.985C110.749 153.794 110.694 153.627 110.583 153.483C110.478 153.335 110.298 153.193 110.044 153.058C109.79 152.918 109.439 152.766 108.99 152.601C108.546 152.432 108.161 152.264 107.835 152.099C107.513 151.93 107.264 151.725 107.086 151.484C106.912 151.242 106.826 150.929 106.826 150.544C106.826 149.956 107.063 149.505 107.537 149.192C108.015 148.875 108.641 148.716 109.416 148.716C109.834 148.716 110.226 148.758 110.59 148.843C110.958 148.923 111.301 149.033 111.618 149.173L111.263 150.017C110.975 149.895 110.668 149.791 110.342 149.706C110.016 149.622 109.684 149.579 109.346 149.579C108.859 149.579 108.485 149.66 108.222 149.821C107.964 149.981 107.835 150.201 107.835 150.481C107.835 150.697 107.894 150.874 108.013 151.014C108.135 151.154 108.33 151.285 108.597 151.407C108.863 151.53 109.215 151.674 109.65 151.839C110.086 152 110.463 152.167 110.78 152.341C111.098 152.51 111.341 152.717 111.51 152.963C111.684 153.204 111.771 153.515 111.771 153.896ZM115.712 155.064C115.886 155.064 116.064 155.049 116.246 155.019C116.428 154.99 116.576 154.954 116.69 154.911V155.73C116.567 155.785 116.396 155.832 116.176 155.87C115.96 155.908 115.748 155.927 115.541 155.927C115.173 155.927 114.839 155.864 114.538 155.737C114.238 155.605 113.996 155.385 113.814 155.076C113.637 154.767 113.548 154.34 113.548 153.794V149.668H112.558V149.154L113.554 148.741L113.973 147.231H114.608V148.843H116.646V149.668H114.608V153.762C114.608 154.198 114.707 154.524 114.906 154.74C115.109 154.956 115.378 155.064 115.712 155.064ZM123.723 155.064C123.897 155.064 124.074 155.049 124.256 155.019C124.438 154.99 124.586 154.954 124.701 154.911V155.73C124.578 155.785 124.407 155.832 124.187 155.87C123.971 155.908 123.759 155.927 123.552 155.927C123.184 155.927 122.849 155.864 122.549 155.737C122.248 155.605 122.007 155.385 121.825 155.076C121.647 154.767 121.559 154.34 121.559 153.794V149.668H120.568V149.154L121.565 148.741L121.984 147.231H122.619V148.843H124.656V149.668H122.619V153.762C122.619 154.198 122.718 154.524 122.917 154.74C123.12 154.956 123.389 155.064 123.723 155.064ZM132.108 152.309C132.108 152.88 132.034 153.39 131.886 153.839C131.738 154.287 131.524 154.666 131.245 154.975C130.966 155.284 130.627 155.521 130.229 155.686C129.836 155.847 129.389 155.927 128.89 155.927C128.425 155.927 127.997 155.847 127.608 155.686C127.223 155.521 126.889 155.284 126.605 154.975C126.326 154.666 126.108 154.287 125.951 153.839C125.799 153.39 125.723 152.88 125.723 152.309C125.723 151.547 125.852 150.9 126.11 150.366C126.368 149.829 126.736 149.421 127.214 149.141C127.697 148.858 128.27 148.716 128.935 148.716C129.569 148.716 130.124 148.858 130.598 149.141C131.076 149.425 131.446 149.835 131.708 150.373C131.975 150.906 132.108 151.551 132.108 152.309ZM126.814 152.309C126.814 152.867 126.889 153.352 127.037 153.762C127.185 154.173 127.413 154.49 127.722 154.715C128.031 154.939 128.429 155.051 128.916 155.051C129.398 155.051 129.794 154.939 130.103 154.715C130.416 154.49 130.646 154.173 130.794 153.762C130.943 153.352 131.017 152.867 131.017 152.309C131.017 151.754 130.943 151.276 130.794 150.874C130.646 150.468 130.418 150.155 130.109 149.935C129.8 149.715 129.4 149.605 128.909 149.605C128.186 149.605 127.654 149.844 127.316 150.322C126.982 150.8 126.814 151.462 126.814 152.309ZM144.861 148.716C145.627 148.716 146.204 148.917 146.594 149.319C146.983 149.717 147.178 150.358 147.178 151.242V155.8H146.137V151.293C146.137 150.73 146.014 150.309 145.769 150.03C145.527 149.747 145.168 149.605 144.689 149.605C144.017 149.605 143.528 149.799 143.223 150.189C142.918 150.578 142.766 151.151 142.766 151.909V155.8H141.719V151.293C141.719 150.917 141.664 150.603 141.554 150.354C141.448 150.104 141.287 149.918 141.071 149.795C140.86 149.668 140.591 149.605 140.265 149.605C139.804 149.605 139.434 149.7 139.154 149.89C138.875 150.081 138.672 150.364 138.545 150.741C138.422 151.113 138.361 151.573 138.361 152.118V155.8H137.307V148.843H138.158L138.316 149.827H138.374C138.513 149.586 138.689 149.383 138.9 149.218C139.112 149.052 139.349 148.928 139.611 148.843C139.874 148.758 140.153 148.716 140.449 148.716C140.978 148.716 141.42 148.816 141.776 149.014C142.136 149.209 142.396 149.507 142.557 149.909H142.614C142.842 149.507 143.155 149.209 143.553 149.014C143.951 148.816 144.387 148.716 144.861 148.716ZM151.945 148.729C152.774 148.729 153.39 148.915 153.792 149.287C154.194 149.66 154.395 150.254 154.395 151.071V155.8H153.627L153.424 154.772H153.373C153.178 155.026 152.975 155.239 152.764 155.413C152.552 155.582 152.307 155.711 152.027 155.8C151.752 155.885 151.414 155.927 151.012 155.927C150.589 155.927 150.212 155.853 149.882 155.705C149.556 155.557 149.298 155.332 149.107 155.032C148.921 154.732 148.828 154.351 148.828 153.889C148.828 153.195 149.103 152.662 149.653 152.29C150.203 151.917 151.041 151.714 152.167 151.68L153.367 151.63V151.204C153.367 150.603 153.238 150.182 152.979 149.941C152.721 149.7 152.357 149.579 151.888 149.579C151.524 149.579 151.177 149.632 150.847 149.738C150.517 149.844 150.203 149.969 149.907 150.113L149.583 149.313C149.897 149.152 150.256 149.014 150.663 148.9C151.069 148.786 151.496 148.729 151.945 148.729ZM153.354 152.372L152.294 152.417C151.426 152.451 150.815 152.592 150.459 152.842C150.104 153.092 149.926 153.445 149.926 153.902C149.926 154.3 150.047 154.594 150.288 154.784C150.529 154.975 150.849 155.07 151.247 155.07C151.864 155.07 152.37 154.899 152.764 154.556C153.157 154.213 153.354 153.699 153.354 153.013V152.372ZM157.613 145.923V151.052C157.613 151.221 157.607 151.429 157.594 151.674C157.582 151.915 157.571 152.129 157.562 152.315H157.607C157.696 152.205 157.825 152.042 157.994 151.826C158.168 151.611 158.314 151.437 158.432 151.306L160.743 148.843H161.98L159.181 151.814L162.184 155.8H160.914L158.458 152.506L157.613 153.28V155.8H156.566V145.923H157.613ZM166.075 148.716C166.667 148.716 167.175 148.847 167.598 149.11C168.021 149.372 168.345 149.74 168.569 150.214C168.794 150.684 168.906 151.234 168.906 151.865V152.518H164.101C164.113 153.335 164.316 153.957 164.71 154.385C165.104 154.812 165.658 155.026 166.373 155.026C166.813 155.026 167.202 154.985 167.541 154.905C167.88 154.825 168.231 154.706 168.595 154.55V155.476C168.243 155.633 167.894 155.747 167.547 155.819C167.205 155.891 166.798 155.927 166.329 155.927C165.66 155.927 165.076 155.792 164.577 155.521C164.082 155.246 163.696 154.844 163.421 154.315C163.146 153.786 163.009 153.138 163.009 152.372C163.009 151.623 163.134 150.976 163.383 150.43C163.637 149.88 163.993 149.457 164.45 149.16C164.911 148.864 165.453 148.716 166.075 148.716ZM166.062 149.579C165.499 149.579 165.051 149.763 164.716 150.132C164.382 150.5 164.183 151.014 164.12 151.674H167.801C167.797 151.259 167.731 150.895 167.604 150.582C167.482 150.265 167.293 150.019 167.04 149.846C166.786 149.668 166.46 149.579 166.062 149.579ZM176.32 155.064C176.493 155.064 176.671 155.049 176.853 155.019C177.035 154.99 177.183 154.954 177.297 154.911V155.73C177.175 155.785 177.003 155.832 176.783 155.87C176.567 155.908 176.356 155.927 176.148 155.927C175.78 155.927 175.446 155.864 175.146 155.737C174.845 155.605 174.604 155.385 174.422 155.076C174.244 154.767 174.155 154.34 174.155 153.794V149.668H173.165V149.154L174.162 148.741L174.581 147.231H175.215V148.843H177.253V149.668H175.215V153.762C175.215 154.198 175.315 154.524 175.514 154.74C175.717 154.956 175.986 155.064 176.32 155.064ZM179.76 145.923V148.875C179.76 149.044 179.756 149.215 179.748 149.389C179.739 149.558 179.724 149.715 179.703 149.859H179.773C179.917 149.613 180.099 149.408 180.319 149.243C180.543 149.074 180.797 148.947 181.081 148.862C181.364 148.773 181.665 148.729 181.982 148.729C182.541 148.729 183.006 148.818 183.378 148.995C183.755 149.173 184.036 149.448 184.223 149.821C184.413 150.193 184.508 150.675 184.508 151.268V155.8H183.467V151.338C183.467 150.758 183.334 150.324 183.067 150.036C182.805 149.749 182.401 149.605 181.855 149.605C181.339 149.605 180.926 149.704 180.617 149.903C180.312 150.098 180.092 150.385 179.957 150.766C179.826 151.147 179.76 151.613 179.76 152.163V155.8H178.707V145.923H179.76ZM189.358 148.716C189.95 148.716 190.458 148.847 190.881 149.11C191.305 149.372 191.628 149.74 191.853 150.214C192.077 150.684 192.189 151.234 192.189 151.865V152.518H187.384C187.396 153.335 187.6 153.957 187.993 154.385C188.387 154.812 188.941 155.026 189.656 155.026C190.096 155.026 190.486 154.985 190.824 154.905C191.163 154.825 191.514 154.706 191.878 154.55V155.476C191.527 155.633 191.178 155.747 190.831 155.819C190.488 155.891 190.082 155.927 189.612 155.927C188.943 155.927 188.359 155.792 187.86 155.521C187.365 155.246 186.98 154.844 186.705 154.315C186.43 153.786 186.292 153.138 186.292 152.372C186.292 151.623 186.417 150.976 186.667 150.43C186.92 149.88 187.276 149.457 187.733 149.16C188.194 148.864 188.736 148.716 189.358 148.716ZM189.345 149.579C188.782 149.579 188.334 149.763 188 150.132C187.665 150.5 187.466 151.014 187.403 151.674H191.084C191.08 151.259 191.015 150.895 190.888 150.582C190.765 150.265 190.577 150.019 190.323 149.846C190.069 149.668 189.743 149.579 189.345 149.579ZM203.354 152.309C203.354 152.88 203.28 153.39 203.132 153.839C202.984 154.287 202.771 154.666 202.491 154.975C202.212 155.284 201.873 155.521 201.476 155.686C201.082 155.847 200.636 155.927 200.136 155.927C199.671 155.927 199.243 155.847 198.854 155.686C198.469 155.521 198.135 155.284 197.851 154.975C197.572 154.666 197.354 154.287 197.197 153.839C197.045 153.39 196.969 152.88 196.969 152.309C196.969 151.547 197.098 150.9 197.356 150.366C197.614 149.829 197.982 149.421 198.46 149.141C198.943 148.858 199.516 148.716 200.181 148.716C200.815 148.716 201.37 148.858 201.844 149.141C202.322 149.425 202.692 149.835 202.955 150.373C203.221 150.906 203.354 151.551 203.354 152.309ZM198.061 152.309C198.061 152.867 198.135 153.352 198.283 153.762C198.431 154.173 198.659 154.49 198.968 154.715C199.277 154.939 199.675 155.051 200.162 155.051C200.644 155.051 201.04 154.939 201.349 154.715C201.662 154.49 201.892 154.173 202.041 153.762C202.189 153.352 202.263 152.867 202.263 152.309C202.263 151.754 202.189 151.276 202.041 150.874C201.892 150.468 201.664 150.155 201.355 149.935C201.046 149.715 200.646 149.605 200.155 149.605C199.432 149.605 198.901 149.844 198.562 150.322C198.228 150.8 198.061 151.462 198.061 152.309ZM207.423 155.064C207.597 155.064 207.775 155.049 207.957 155.019C208.139 154.99 208.287 154.954 208.401 154.911V155.73C208.278 155.785 208.107 155.832 207.887 155.87C207.671 155.908 207.459 155.927 207.252 155.927C206.884 155.927 206.549 155.864 206.249 155.737C205.949 155.605 205.707 155.385 205.525 155.076C205.348 154.767 205.259 154.34 205.259 153.794V149.668H204.269V149.154L205.265 148.741L205.684 147.231H206.319V148.843H208.356V149.668H206.319V153.762C206.319 154.198 206.418 154.524 206.617 154.74C206.82 154.956 207.089 155.064 207.423 155.064ZM210.864 145.923V148.875C210.864 149.044 210.86 149.215 210.851 149.389C210.843 149.558 210.828 149.715 210.807 149.859H210.876C211.02 149.613 211.202 149.408 211.422 149.243C211.647 149.074 211.901 148.947 212.184 148.862C212.468 148.773 212.768 148.729 213.085 148.729C213.644 148.729 214.11 148.818 214.482 148.995C214.859 149.173 215.14 149.448 215.326 149.821C215.517 150.193 215.612 150.675 215.612 151.268V155.8H214.571V151.338C214.571 150.758 214.438 150.324 214.171 150.036C213.909 149.749 213.504 149.605 212.958 149.605C212.442 149.605 212.03 149.704 211.721 149.903C211.416 150.098 211.196 150.385 211.061 150.766C210.929 151.147 210.864 151.613 210.864 152.163V155.8H209.81V145.923H210.864ZM220.461 148.716C221.054 148.716 221.562 148.847 221.985 149.11C222.408 149.372 222.732 149.74 222.956 150.214C223.18 150.684 223.292 151.234 223.292 151.865V152.518H218.487C218.5 153.335 218.703 153.957 219.097 154.385C219.49 154.812 220.045 155.026 220.76 155.026C221.2 155.026 221.589 154.985 221.928 154.905C222.266 154.825 222.618 154.706 222.981 154.55V155.476C222.63 155.633 222.281 155.747 221.934 155.819C221.591 155.891 221.185 155.927 220.715 155.927C220.047 155.927 219.463 155.792 218.963 155.521C218.468 155.246 218.083 154.844 217.808 154.315C217.533 153.786 217.396 153.138 217.396 152.372C217.396 151.623 217.52 150.976 217.77 150.43C218.024 149.88 218.379 149.457 218.836 149.16C219.298 148.864 219.839 148.716 220.461 148.716ZM220.449 149.579C219.886 149.579 219.437 149.763 219.103 150.132C218.769 150.5 218.57 151.014 218.506 151.674H222.188C222.184 151.259 222.118 150.895 221.991 150.582C221.868 150.265 221.68 150.019 221.426 149.846C221.172 149.668 220.847 149.579 220.449 149.579ZM228.244 148.716C228.383 148.716 228.529 148.725 228.682 148.741C228.834 148.754 228.969 148.773 229.088 148.799L228.955 149.776C228.84 149.747 228.713 149.723 228.574 149.706C228.434 149.689 228.303 149.681 228.18 149.681C227.901 149.681 227.636 149.738 227.387 149.852C227.141 149.962 226.925 150.123 226.739 150.335C226.553 150.542 226.407 150.794 226.301 151.09C226.195 151.382 226.143 151.708 226.143 152.068V155.8H225.083V148.843H225.958L226.073 150.125H226.117C226.261 149.867 226.435 149.632 226.638 149.421C226.841 149.205 227.076 149.033 227.342 148.906C227.613 148.78 227.914 148.716 228.244 148.716ZM234.902 153.896C234.902 154.34 234.79 154.715 234.566 155.019C234.346 155.32 234.028 155.546 233.614 155.698C233.203 155.851 232.712 155.927 232.141 155.927C231.654 155.927 231.233 155.889 230.878 155.813C230.522 155.737 230.211 155.629 229.945 155.489V154.518C230.228 154.657 230.567 154.784 230.96 154.899C231.354 155.013 231.756 155.07 232.167 155.07C232.767 155.07 233.203 154.973 233.474 154.778C233.745 154.583 233.88 154.319 233.88 153.985C233.88 153.794 233.825 153.627 233.715 153.483C233.61 153.335 233.43 153.193 233.176 153.058C232.922 152.918 232.571 152.766 232.122 152.601C231.678 152.432 231.293 152.264 230.967 152.099C230.645 151.93 230.396 151.725 230.218 151.484C230.044 151.242 229.958 150.929 229.958 150.544C229.958 149.956 230.194 149.505 230.668 149.192C231.147 148.875 231.773 148.716 232.547 148.716C232.966 148.716 233.358 148.758 233.722 148.843C234.09 148.923 234.433 149.033 234.75 149.173L234.395 150.017C234.107 149.895 233.8 149.791 233.474 149.706C233.148 149.622 232.816 149.579 232.478 149.579C231.991 149.579 231.616 149.66 231.354 149.821C231.096 149.981 230.967 150.201 230.967 150.481C230.967 150.697 231.026 150.874 231.145 151.014C231.267 151.154 231.462 151.285 231.729 151.407C231.995 151.53 232.346 151.674 232.782 151.839C233.218 152 233.595 152.167 233.912 152.341C234.229 152.51 234.473 152.717 234.642 152.963C234.816 153.204 234.902 153.515 234.902 153.896ZM241.028 148.843V155.8H239.974V148.843H241.028ZM240.514 146.24C240.687 146.24 240.835 146.298 240.958 146.412C241.085 146.522 241.148 146.695 241.148 146.932C241.148 147.165 241.085 147.339 240.958 147.453C240.835 147.567 240.687 147.624 240.514 147.624C240.332 147.624 240.179 147.567 240.057 147.453C239.938 147.339 239.879 147.165 239.879 146.932C239.879 146.695 239.938 146.522 240.057 146.412C240.179 146.298 240.332 146.24 240.514 146.24ZM246.557 148.716C247.382 148.716 248.006 148.919 248.429 149.325C248.852 149.727 249.064 150.375 249.064 151.268V155.8H248.023V151.338C248.023 150.758 247.89 150.324 247.623 150.036C247.361 149.749 246.957 149.605 246.411 149.605C245.64 149.605 245.099 149.823 244.786 150.259C244.472 150.694 244.316 151.327 244.316 152.156V155.8H243.262V148.843H244.113L244.271 149.846H244.329C244.477 149.601 244.665 149.395 244.894 149.23C245.122 149.061 245.378 148.934 245.662 148.849C245.945 148.76 246.243 148.716 246.557 148.716ZM256.859 155.064C257.032 155.064 257.21 155.049 257.392 155.019C257.574 154.99 257.722 154.954 257.836 154.911V155.73C257.714 155.785 257.542 155.832 257.322 155.87C257.106 155.908 256.895 155.927 256.688 155.927C256.319 155.927 255.985 155.864 255.685 155.737C255.384 155.605 255.143 155.385 254.961 155.076C254.783 154.767 254.694 154.34 254.694 153.794V149.668H253.704V149.154L254.701 148.741L255.12 147.231H255.754V148.843H257.792V149.668H255.754V153.762C255.754 154.198 255.854 154.524 256.053 154.74C256.256 154.956 256.525 155.064 256.859 155.064ZM260.299 145.923V148.875C260.299 149.044 260.295 149.215 260.287 149.389C260.278 149.558 260.263 149.715 260.242 149.859H260.312C260.456 149.613 260.638 149.408 260.858 149.243C261.082 149.074 261.336 148.947 261.62 148.862C261.903 148.773 262.204 148.729 262.521 148.729C263.08 148.729 263.545 148.818 263.917 148.995C264.294 149.173 264.576 149.448 264.762 149.821C264.952 150.193 265.047 150.675 265.047 151.268V155.8H264.006V151.338C264.006 150.758 263.873 150.324 263.606 150.036C263.344 149.749 262.94 149.605 262.394 149.605C261.878 149.605 261.465 149.704 261.156 149.903C260.852 150.098 260.632 150.385 260.496 150.766C260.365 151.147 260.299 151.613 260.299 152.163V155.8H259.246V145.923H260.299ZM269.897 148.716C270.489 148.716 270.997 148.847 271.42 149.11C271.844 149.372 272.167 149.74 272.392 150.214C272.616 150.684 272.728 151.234 272.728 151.865V152.518H267.923C267.936 153.335 268.139 153.957 268.532 154.385C268.926 154.812 269.48 155.026 270.195 155.026C270.635 155.026 271.025 154.985 271.363 154.905C271.702 154.825 272.053 154.706 272.417 154.55V155.476C272.066 155.633 271.717 155.747 271.37 155.819C271.027 155.891 270.621 155.927 270.151 155.927C269.482 155.927 268.898 155.792 268.399 155.521C267.904 155.246 267.519 154.844 267.244 154.315C266.969 153.786 266.831 153.138 266.831 152.372C266.831 151.623 266.956 150.976 267.206 150.43C267.459 149.88 267.815 149.457 268.272 149.16C268.733 148.864 269.275 148.716 269.897 148.716ZM269.884 149.579C269.321 149.579 268.873 149.763 268.539 150.132C268.204 150.5 268.005 151.014 267.942 151.674H271.624C271.619 151.259 271.554 150.895 271.427 150.582C271.304 150.265 271.116 150.019 270.862 149.846C270.608 149.668 270.282 149.579 269.884 149.579ZM275.572 148.843V155.8H274.518V148.843H275.572ZM275.058 146.24C275.231 146.24 275.379 146.298 275.502 146.412C275.629 146.522 275.692 146.695 275.692 146.932C275.692 147.165 275.629 147.339 275.502 147.453C275.379 147.567 275.231 147.624 275.058 147.624C274.876 147.624 274.723 147.567 274.601 147.453C274.482 147.339 274.423 147.165 274.423 146.932C274.423 146.695 274.482 146.522 274.601 146.412C274.723 146.298 274.876 146.24 275.058 146.24ZM280.967 148.716C281.107 148.716 281.253 148.725 281.405 148.741C281.558 148.754 281.693 148.773 281.812 148.799L281.678 149.776C281.564 149.747 281.437 149.723 281.297 149.706C281.158 149.689 281.027 149.681 280.904 149.681C280.625 149.681 280.36 149.738 280.11 149.852C279.865 149.962 279.649 150.123 279.463 150.335C279.277 150.542 279.131 150.794 279.025 151.09C278.919 151.382 278.866 151.708 278.866 152.068V155.8H277.806V148.843H278.682L278.796 150.125H278.841C278.985 149.867 279.158 149.632 279.361 149.421C279.564 149.205 279.799 149.033 280.066 148.906C280.337 148.78 280.637 148.716 280.967 148.716ZM33.3579 180.064C33.5314 180.064 33.7091 180.049 33.8911 180.019C34.0731 179.99 34.2212 179.954 34.3354 179.911V180.73C34.2127 180.785 34.0413 180.832 33.8213 180.87C33.6055 180.908 33.3939 180.927 33.1865 180.927C32.8184 180.927 32.484 180.864 32.1836 180.737C31.8831 180.605 31.6419 180.385 31.46 180.076C31.2822 179.767 31.1934 179.34 31.1934 178.794V174.668H30.2031V174.154L31.1997 173.741L31.6187 172.231H32.2534V173.843H34.291V174.668H32.2534V178.762C32.2534 179.198 32.3529 179.524 32.5518 179.74C32.7549 179.956 33.0236 180.064 33.3579 180.064ZM38.9058 173.716C39.0454 173.716 39.1914 173.725 39.3438 173.741C39.4961 173.754 39.6315 173.773 39.75 173.799L39.6167 174.776C39.5024 174.747 39.3755 174.723 39.2358 174.706C39.0962 174.689 38.965 174.681 38.8423 174.681C38.563 174.681 38.2985 174.738 38.0488 174.852C37.8034 174.962 37.5876 175.123 37.4014 175.335C37.2152 175.542 37.0692 175.794 36.9634 176.09C36.8576 176.382 36.8047 176.708 36.8047 177.068V180.8H35.7446V173.843H36.6206L36.7349 175.125H36.7793C36.9232 174.867 37.0967 174.632 37.2998 174.421C37.5029 174.205 37.7378 174.033 38.0044 173.906C38.2752 173.78 38.5757 173.716 38.9058 173.716ZM47.0625 177.309C47.0625 177.88 46.9884 178.39 46.8403 178.839C46.6922 179.287 46.4785 179.666 46.1992 179.975C45.9199 180.284 45.5814 180.521 45.1836 180.686C44.79 180.847 44.3436 180.927 43.8442 180.927C43.3787 180.927 42.9513 180.847 42.562 180.686C42.1769 180.521 41.8426 180.284 41.5591 179.975C41.2798 179.666 41.0618 179.287 40.9053 178.839C40.7529 178.39 40.6768 177.88 40.6768 177.309C40.6768 176.547 40.8058 175.9 41.064 175.366C41.3221 174.829 41.6903 174.421 42.1685 174.141C42.6509 173.858 43.2243 173.716 43.8887 173.716C44.5234 173.716 45.0778 173.858 45.5518 174.141C46.0299 174.425 46.4002 174.835 46.6626 175.373C46.9292 175.906 47.0625 176.551 47.0625 177.309ZM41.7686 177.309C41.7686 177.867 41.8426 178.352 41.9907 178.762C42.1388 179.173 42.3674 179.49 42.6763 179.715C42.9852 179.939 43.383 180.051 43.8696 180.051C44.3521 180.051 44.7477 179.939 45.0566 179.715C45.3698 179.49 45.6004 179.173 45.7485 178.762C45.8966 178.352 45.9707 177.867 45.9707 177.309C45.9707 176.754 45.8966 176.276 45.7485 175.874C45.6004 175.468 45.3719 175.155 45.063 174.935C44.7541 174.715 44.3542 174.605 43.8633 174.605C43.1396 174.605 42.6086 174.844 42.27 175.322C41.9357 175.8 41.7686 176.462 41.7686 177.309ZM52.1533 173.716C53.0208 173.716 53.7127 174.014 54.229 174.611C54.7453 175.208 55.0034 176.105 55.0034 177.302C55.0034 178.094 54.8849 178.758 54.6479 179.296C54.411 179.833 54.0767 180.239 53.645 180.514C53.2176 180.789 52.7119 180.927 52.1279 180.927C51.7598 180.927 51.436 180.878 51.1567 180.781C50.8774 180.684 50.6383 180.552 50.4395 180.387C50.2406 180.222 50.0755 180.043 49.9443 179.848H49.8682C49.8809 180.013 49.8957 180.212 49.9126 180.445C49.9338 180.677 49.9443 180.88 49.9443 181.054V183.91H48.8843V173.843H49.7539L49.8936 174.871H49.9443C50.0798 174.66 50.2448 174.467 50.4395 174.294C50.6341 174.116 50.8711 173.976 51.1504 173.875C51.4339 173.769 51.7682 173.716 52.1533 173.716ZM51.9692 174.605C51.4868 174.605 51.0975 174.698 50.8013 174.884C50.5093 175.07 50.2956 175.35 50.1602 175.722C50.0247 176.09 49.9528 176.553 49.9443 177.112V177.315C49.9443 177.903 50.0078 178.401 50.1348 178.807C50.266 179.213 50.4797 179.522 50.7759 179.734C51.0763 179.945 51.4784 180.051 51.9819 180.051C52.4136 180.051 52.7733 179.935 53.061 179.702C53.3488 179.469 53.5625 179.145 53.7021 178.731C53.846 178.312 53.918 177.831 53.918 177.29C53.918 176.469 53.7572 175.817 53.4355 175.335C53.1182 174.848 52.6294 174.605 51.9692 174.605ZM57.8979 173.843V180.8H56.8442V173.843H57.8979ZM57.3838 171.24C57.5573 171.24 57.7054 171.298 57.8281 171.412C57.9551 171.522 58.0186 171.695 58.0186 171.932C58.0186 172.165 57.9551 172.339 57.8281 172.453C57.7054 172.567 57.5573 172.624 57.3838 172.624C57.2018 172.624 57.0495 172.567 56.9268 172.453C56.8083 172.339 56.749 172.165 56.749 171.932C56.749 171.695 56.8083 171.522 56.9268 171.412C57.0495 171.298 57.2018 171.24 57.3838 171.24ZM62.9189 180.927C62.2926 180.927 61.7404 180.798 61.2622 180.54C60.784 180.282 60.4116 179.888 60.145 179.359C59.8784 178.83 59.7451 178.164 59.7451 177.36C59.7451 176.517 59.8848 175.83 60.1641 175.297C60.4476 174.759 60.8369 174.361 61.332 174.103C61.8271 173.845 62.39 173.716 63.0205 173.716C63.3675 173.716 63.7018 173.752 64.0234 173.824C64.3493 173.892 64.6159 173.978 64.8232 174.084L64.5059 174.967C64.2943 174.882 64.0488 174.806 63.7695 174.738C63.4945 174.67 63.2363 174.636 62.9951 174.636C62.5127 174.636 62.1107 174.74 61.7891 174.948C61.4717 175.155 61.2326 175.46 61.0718 175.862C60.9152 176.264 60.8369 176.759 60.8369 177.347C60.8369 177.91 60.9131 178.39 61.0654 178.788C61.222 179.186 61.4526 179.49 61.7573 179.702C62.0662 179.909 62.4513 180.013 62.9126 180.013C63.2808 180.013 63.613 179.975 63.9092 179.899C64.2054 179.818 64.4741 179.725 64.7153 179.619V180.559C64.4826 180.677 64.2223 180.768 63.9346 180.832C63.651 180.895 63.3125 180.927 62.9189 180.927ZM70.7964 173.843V180.8H69.7427V173.843H70.7964ZM70.2822 171.24C70.4557 171.24 70.6038 171.298 70.7266 171.412C70.8535 171.522 70.917 171.695 70.917 171.932C70.917 172.165 70.8535 172.339 70.7266 172.453C70.6038 172.567 70.4557 172.624 70.2822 172.624C70.1003 172.624 69.9479 172.567 69.8252 172.453C69.7067 172.339 69.6475 172.165 69.6475 171.932C69.6475 171.695 69.7067 171.522 69.8252 171.412C69.9479 171.298 70.1003 171.24 70.2822 171.24ZM77.5312 178.896C77.5312 179.34 77.4191 179.715 77.1948 180.019C76.9748 180.32 76.6574 180.546 76.2427 180.698C75.8322 180.851 75.3413 180.927 74.77 180.927C74.2834 180.927 73.8623 180.889 73.5068 180.813C73.1514 180.737 72.8403 180.629 72.5737 180.489V179.518C72.8573 179.657 73.1958 179.784 73.5894 179.899C73.9829 180.013 74.3849 180.07 74.7954 180.07C75.3963 180.07 75.8322 179.973 76.103 179.778C76.3739 179.583 76.5093 179.319 76.5093 178.985C76.5093 178.794 76.4543 178.627 76.3442 178.483C76.2384 178.335 76.0586 178.193 75.8047 178.058C75.5508 177.918 75.1995 177.766 74.751 177.601C74.3066 177.432 73.9215 177.264 73.5957 177.099C73.2741 176.93 73.0244 176.725 72.8467 176.484C72.6732 176.242 72.5864 175.929 72.5864 175.544C72.5864 174.956 72.8234 174.505 73.2974 174.192C73.7756 173.875 74.4019 173.716 75.1763 173.716C75.5952 173.716 75.9867 173.758 76.3506 173.843C76.7188 173.923 77.0615 174.033 77.3789 174.173L77.0234 175.017C76.7357 174.895 76.4289 174.791 76.103 174.706C75.7772 174.622 75.445 174.579 75.1064 174.579C74.6198 174.579 74.2453 174.66 73.9829 174.821C73.7248 174.981 73.5957 175.201 73.5957 175.481C73.5957 175.697 73.6549 175.874 73.7734 176.014C73.8962 176.154 74.0908 176.285 74.3574 176.407C74.624 176.53 74.9753 176.674 75.4111 176.839C75.847 177 76.2236 177.167 76.541 177.341C76.8584 177.51 77.1017 177.717 77.271 177.963C77.4445 178.204 77.5312 178.515 77.5312 178.896ZM80.2861 180.8H79.2261V170.923H80.2861V180.8ZM85.1167 173.729C85.9461 173.729 86.5618 173.915 86.9639 174.287C87.3659 174.66 87.5669 175.254 87.5669 176.071V180.8H86.7988L86.5957 179.772H86.5449C86.3503 180.026 86.1471 180.239 85.9355 180.413C85.724 180.582 85.4785 180.711 85.1992 180.8C84.9242 180.885 84.5856 180.927 84.1836 180.927C83.7604 180.927 83.3838 180.853 83.0537 180.705C82.7279 180.557 82.4697 180.332 82.2793 180.032C82.0931 179.732 82 179.351 82 178.889C82 178.195 82.2751 177.662 82.8252 177.29C83.3753 176.917 84.2132 176.714 85.3389 176.68L86.5386 176.63V176.204C86.5386 175.603 86.4095 175.182 86.1514 174.941C85.8932 174.7 85.5293 174.579 85.0596 174.579C84.6956 174.579 84.3486 174.632 84.0186 174.738C83.6885 174.844 83.3753 174.969 83.0791 175.113L82.7554 174.313C83.0685 174.152 83.4282 174.014 83.8345 173.9C84.2407 173.786 84.6681 173.729 85.1167 173.729ZM86.5259 177.372L85.4658 177.417C84.5983 177.451 83.9868 177.592 83.6313 177.842C83.2759 178.092 83.0981 178.445 83.0981 178.902C83.0981 179.3 83.2188 179.594 83.46 179.784C83.7012 179.975 84.0207 180.07 84.4185 180.07C85.0363 180.07 85.542 179.899 85.9355 179.556C86.3291 179.213 86.5259 178.699 86.5259 178.013V177.372ZM93.0322 173.716C93.8574 173.716 94.4816 173.919 94.9048 174.325C95.328 174.727 95.5396 175.375 95.5396 176.268V180.8H94.4985V176.338C94.4985 175.758 94.3652 175.324 94.0986 175.036C93.8363 174.749 93.4321 174.605 92.8862 174.605C92.116 174.605 91.5744 174.823 91.2612 175.259C90.9481 175.694 90.7915 176.327 90.7915 177.156V180.8H89.7378V173.843H90.5884L90.7471 174.846H90.8042C90.9523 174.601 91.1406 174.395 91.3691 174.23C91.5977 174.061 91.8537 173.934 92.1372 173.849C92.4207 173.76 92.7191 173.716 93.0322 173.716ZM100.186 180.927C99.3058 180.927 98.6076 180.627 98.0913 180.026C97.5793 179.425 97.3232 178.532 97.3232 177.347C97.3232 176.149 97.5856 175.246 98.1104 174.636C98.6351 174.023 99.3333 173.716 100.205 173.716C100.573 173.716 100.895 173.765 101.17 173.862C101.445 173.959 101.682 174.091 101.881 174.256C102.08 174.416 102.247 174.601 102.382 174.808H102.458C102.442 174.677 102.425 174.497 102.408 174.268C102.391 174.04 102.382 173.854 102.382 173.71V170.923H103.436V180.8H102.585L102.427 179.81H102.382C102.251 180.017 102.084 180.205 101.881 180.375C101.682 180.544 101.443 180.679 101.164 180.781C100.889 180.878 100.563 180.927 100.186 180.927ZM100.351 180.051C101.096 180.051 101.623 179.839 101.932 179.416C102.241 178.993 102.395 178.365 102.395 177.531V177.341C102.395 176.456 102.247 175.777 101.951 175.303C101.659 174.829 101.125 174.592 100.351 174.592C99.7036 174.592 99.2191 174.842 98.8975 175.341C98.5758 175.836 98.415 176.513 98.415 177.372C98.415 178.227 98.5737 178.887 98.8911 179.353C99.2127 179.818 99.6994 180.051 100.351 180.051ZM112.342 173.716C113.167 173.716 113.791 173.919 114.214 174.325C114.638 174.727 114.849 175.375 114.849 176.268V180.8H113.808V176.338C113.808 175.758 113.675 175.324 113.408 175.036C113.146 174.749 112.742 174.605 112.196 174.605C111.426 174.605 110.884 174.823 110.571 175.259C110.258 175.694 110.101 176.327 110.101 177.156V180.8H109.047V173.843H109.898L110.057 174.846H110.114C110.262 174.601 110.45 174.395 110.679 174.23C110.907 174.061 111.163 173.934 111.447 173.849C111.73 173.76 112.029 173.716 112.342 173.716ZM119.699 173.716C120.291 173.716 120.799 173.847 121.222 174.11C121.645 174.372 121.969 174.74 122.193 175.214C122.418 175.684 122.53 176.234 122.53 176.865V177.518H117.725C117.737 178.335 117.94 178.957 118.334 179.385C118.728 179.812 119.282 180.026 119.997 180.026C120.437 180.026 120.826 179.985 121.165 179.905C121.504 179.825 121.855 179.706 122.219 179.55V180.476C121.868 180.633 121.518 180.747 121.171 180.819C120.829 180.891 120.422 180.927 119.953 180.927C119.284 180.927 118.7 180.792 118.201 180.521C117.706 180.246 117.32 179.844 117.045 179.315C116.77 178.786 116.633 178.138 116.633 177.372C116.633 176.623 116.758 175.976 117.007 175.43C117.261 174.88 117.617 174.457 118.074 174.16C118.535 173.864 119.077 173.716 119.699 173.716ZM119.686 174.579C119.123 174.579 118.675 174.763 118.34 175.132C118.006 175.5 117.807 176.014 117.744 176.674H121.425C121.421 176.259 121.355 175.895 121.229 175.582C121.106 175.265 120.917 175.019 120.664 174.846C120.41 174.668 120.084 174.579 119.686 174.579ZM128.82 178.896C128.82 179.34 128.708 179.715 128.484 180.019C128.264 180.32 127.946 180.546 127.532 180.698C127.121 180.851 126.63 180.927 126.059 180.927C125.572 180.927 125.151 180.889 124.796 180.813C124.44 180.737 124.129 180.629 123.863 180.489V179.518C124.146 179.657 124.485 179.784 124.878 179.899C125.272 180.013 125.674 180.07 126.084 180.07C126.685 180.07 127.121 179.973 127.392 179.778C127.663 179.583 127.798 179.319 127.798 178.985C127.798 178.794 127.743 178.627 127.633 178.483C127.528 178.335 127.348 178.193 127.094 178.058C126.84 177.918 126.489 177.766 126.04 177.601C125.596 177.432 125.211 177.264 124.885 177.099C124.563 176.93 124.313 176.725 124.136 176.484C123.962 176.242 123.875 175.929 123.875 175.544C123.875 174.956 124.112 174.505 124.586 174.192C125.065 173.875 125.691 173.716 126.465 173.716C126.884 173.716 127.276 173.758 127.64 173.843C128.008 173.923 128.351 174.033 128.668 174.173L128.312 175.017C128.025 174.895 127.718 174.791 127.392 174.706C127.066 174.622 126.734 174.579 126.396 174.579C125.909 174.579 125.534 174.66 125.272 174.821C125.014 174.981 124.885 175.201 124.885 175.481C124.885 175.697 124.944 175.874 125.062 176.014C125.185 176.154 125.38 176.285 125.646 176.407C125.913 176.53 126.264 176.674 126.7 176.839C127.136 177 127.513 177.167 127.83 177.341C128.147 177.51 128.391 177.717 128.56 177.963C128.734 178.204 128.82 178.515 128.82 178.896ZM132.762 180.064C132.936 180.064 133.113 180.049 133.295 180.019C133.477 179.99 133.625 179.954 133.74 179.911V180.73C133.617 180.785 133.446 180.832 133.226 180.87C133.01 180.908 132.798 180.927 132.591 180.927C132.223 180.927 131.888 180.864 131.588 180.737C131.287 180.605 131.046 180.385 130.864 180.076C130.687 179.767 130.598 179.34 130.598 178.794V174.668H129.607V174.154L130.604 173.741L131.023 172.231H131.658V173.843H133.695V174.668H131.658V178.762C131.658 179.198 131.757 179.524 131.956 179.74C132.159 179.956 132.428 180.064 132.762 180.064ZM140.773 180.064C140.946 180.064 141.124 180.049 141.306 180.019C141.488 179.99 141.636 179.954 141.75 179.911V180.73C141.628 180.785 141.456 180.832 141.236 180.87C141.021 180.908 140.809 180.927 140.602 180.927C140.233 180.927 139.899 180.864 139.599 180.737C139.298 180.605 139.057 180.385 138.875 180.076C138.697 179.767 138.608 179.34 138.608 178.794V174.668H137.618V174.154L138.615 173.741L139.034 172.231H139.668V173.843H141.706V174.668H139.668V178.762C139.668 179.198 139.768 179.524 139.967 179.74C140.17 179.956 140.439 180.064 140.773 180.064ZM144.213 170.923V173.875C144.213 174.044 144.209 174.215 144.201 174.389C144.192 174.558 144.177 174.715 144.156 174.859H144.226C144.37 174.613 144.552 174.408 144.772 174.243C144.996 174.074 145.25 173.947 145.534 173.862C145.817 173.773 146.118 173.729 146.435 173.729C146.994 173.729 147.459 173.818 147.832 173.995C148.208 174.173 148.49 174.448 148.676 174.821C148.866 175.193 148.961 175.675 148.961 176.268V180.8H147.92V176.338C147.92 175.758 147.787 175.324 147.521 175.036C147.258 174.749 146.854 174.605 146.308 174.605C145.792 174.605 145.379 174.704 145.07 174.903C144.766 175.098 144.546 175.385 144.41 175.766C144.279 176.147 144.213 176.613 144.213 177.163V180.8H143.16V170.923H144.213ZM153.811 173.716C154.403 173.716 154.911 173.847 155.334 174.11C155.758 174.372 156.081 174.74 156.306 175.214C156.53 175.684 156.642 176.234 156.642 176.865V177.518H151.837C151.85 178.335 152.053 178.957 152.446 179.385C152.84 179.812 153.394 180.026 154.109 180.026C154.549 180.026 154.939 179.985 155.277 179.905C155.616 179.825 155.967 179.706 156.331 179.55V180.476C155.98 180.633 155.631 180.747 155.284 180.819C154.941 180.891 154.535 180.927 154.065 180.927C153.396 180.927 152.812 180.792 152.313 180.521C151.818 180.246 151.433 179.844 151.158 179.315C150.883 178.786 150.745 178.138 150.745 177.372C150.745 176.623 150.87 175.976 151.12 175.43C151.374 174.88 151.729 174.457 152.186 174.16C152.647 173.864 153.189 173.716 153.811 173.716ZM153.798 174.579C153.236 174.579 152.787 174.763 152.453 175.132C152.118 175.5 151.919 176.014 151.856 176.674H155.538C155.533 176.259 155.468 175.895 155.341 175.582C155.218 175.265 155.03 175.019 154.776 174.846C154.522 174.668 154.196 174.579 153.798 174.579ZM160.711 173.843H161.841L163.377 177.88C163.466 178.117 163.548 178.346 163.625 178.566C163.701 178.781 163.768 178.989 163.828 179.188C163.887 179.387 163.933 179.579 163.967 179.765H164.012C164.071 179.554 164.156 179.277 164.266 178.934C164.376 178.587 164.494 178.233 164.621 177.874L166.075 173.843H167.211L164.183 181.822C164.022 182.249 163.834 182.622 163.618 182.939C163.407 183.257 163.148 183.5 162.844 183.669C162.539 183.843 162.171 183.929 161.739 183.929C161.54 183.929 161.365 183.917 161.212 183.891C161.06 183.87 160.929 183.845 160.819 183.815V182.971C160.912 182.992 161.024 183.011 161.155 183.028C161.291 183.045 161.43 183.053 161.574 183.053C161.837 183.053 162.063 183.003 162.253 182.901C162.448 182.804 162.615 182.66 162.755 182.469C162.895 182.279 163.015 182.053 163.117 181.79L163.498 180.813L160.711 173.843ZM171 173.716C171.593 173.716 172.101 173.847 172.524 174.11C172.947 174.372 173.271 174.74 173.495 175.214C173.719 175.684 173.832 176.234 173.832 176.865V177.518H169.026C169.039 178.335 169.242 178.957 169.636 179.385C170.029 179.812 170.584 180.026 171.299 180.026C171.739 180.026 172.128 179.985 172.467 179.905C172.805 179.825 173.157 179.706 173.521 179.55V180.476C173.169 180.633 172.82 180.747 172.473 180.819C172.13 180.891 171.724 180.927 171.254 180.927C170.586 180.927 170.002 180.792 169.502 180.521C169.007 180.246 168.622 179.844 168.347 179.315C168.072 178.786 167.935 178.138 167.935 177.372C167.935 176.623 168.059 175.976 168.309 175.43C168.563 174.88 168.918 174.457 169.375 174.16C169.837 173.864 170.378 173.716 171 173.716ZM170.988 174.579C170.425 174.579 169.976 174.763 169.642 175.132C169.308 175.5 169.109 176.014 169.045 176.674H172.727C172.723 176.259 172.657 175.895 172.53 175.582C172.408 175.265 172.219 175.019 171.965 174.846C171.711 174.668 171.386 174.579 170.988 174.579ZM178.224 173.729C179.054 173.729 179.669 173.915 180.071 174.287C180.473 174.66 180.674 175.254 180.674 176.071V180.8H179.906L179.703 179.772H179.652C179.458 180.026 179.255 180.239 179.043 180.413C178.831 180.582 178.586 180.711 178.307 180.8C178.032 180.885 177.693 180.927 177.291 180.927C176.868 180.927 176.491 180.853 176.161 180.705C175.835 180.557 175.577 180.332 175.387 180.032C175.201 179.732 175.107 179.351 175.107 178.889C175.107 178.195 175.382 177.662 175.933 177.29C176.483 176.917 177.321 176.714 178.446 176.68L179.646 176.63V176.204C179.646 175.603 179.517 175.182 179.259 174.941C179.001 174.7 178.637 174.579 178.167 174.579C177.803 174.579 177.456 174.632 177.126 174.738C176.796 174.844 176.483 174.969 176.187 175.113L175.863 174.313C176.176 174.152 176.536 174.014 176.942 173.9C177.348 173.786 177.776 173.729 178.224 173.729ZM179.633 177.372L178.573 177.417C177.706 177.451 177.094 177.592 176.739 177.842C176.383 178.092 176.206 178.445 176.206 178.902C176.206 179.3 176.326 179.594 176.567 179.784C176.809 179.975 177.128 180.07 177.526 180.07C178.144 180.07 178.649 179.899 179.043 179.556C179.437 179.213 179.633 178.699 179.633 178.013V177.372ZM186.006 173.716C186.146 173.716 186.292 173.725 186.444 173.741C186.597 173.754 186.732 173.773 186.851 173.799L186.717 174.776C186.603 174.747 186.476 174.723 186.336 174.706C186.197 174.689 186.066 174.681 185.943 174.681C185.664 174.681 185.399 174.738 185.149 174.852C184.904 174.962 184.688 175.123 184.502 175.335C184.316 175.542 184.17 175.794 184.064 176.09C183.958 176.382 183.905 176.708 183.905 177.068V180.8H182.845V173.843H183.721L183.835 175.125H183.88C184.024 174.867 184.197 174.632 184.4 174.421C184.604 174.205 184.838 174.033 185.105 173.906C185.376 173.78 185.676 173.716 186.006 173.716ZM188.006 180.14C188.006 179.844 188.078 179.634 188.222 179.511C188.366 179.385 188.541 179.321 188.749 179.321C188.964 179.321 189.146 179.385 189.294 179.511C189.443 179.634 189.517 179.844 189.517 180.14C189.517 180.432 189.443 180.646 189.294 180.781C189.146 180.912 188.964 180.978 188.749 180.978C188.541 180.978 188.366 180.912 188.222 180.781C188.078 180.646 188.006 180.432 188.006 180.14Z" fill="#999999"/>
</g>
<defs>
<filter id="filter0_d_1_64" x="0" y="0" width="322" height="225" filterUnits="userSpaceOnUse" color-interpolation-filters="sRGB">
<feFlood flood-opacity="0" result="BackgroundImageFix"/>
<feColorMatrix in="SourceAlpha" type="matrix" values="0 0 0 0 0 0 0 0 0 0 0 0 0 0 0 0 0 0 127 0" result="hardAlpha"/>
<feOffset dx="2" dy="2"/>
<feComposite in2="hardAlpha" operator="out"/>
<feColorMatrix type="matrix" values="0 0 0 0 0.929412 0 0 0 0 0.929412 0 0 0 0 0.929412 0 0 0 1 0"/>
<feBlend mode="normal" in2="BackgroundImageFix" result="effect1_dropShadow_1_64"/>
<feBlend mode="normal" in="SourceGraphic" in2="effect1_dropShadow_1_64" result="shape"/>
</filter>
</defs>
</svg>
